<svg id="圖層_1" data-name="圖層 1" xmlns="http://www.w3.org/2000/svg" viewBox="0 0 760.66 839.38"><defs><style>.cls-1{fill:#fff;}</style></defs><path class="cls-1" d="M763.29,330.63,735,307.74l5.58-10.51c42-79.12-7.57-175.91-96.34-188L635.45,108h0C612.6,18.91,506.42-18.21,433,37.23l-2.24,1.69-2.25-1.7C355.16-18.21,249,18.91,226.15,108h0l-8.75,1.2c-88.77,12.12-138.36,108.91-96.34,188l5.57,10.47L98.3,330.62c-63.78,51.56-63.77,148.79,0,200.35l28.32,22.89-5.58,10.5c-42,79.13,7.57,175.91,96.33,188l8.77,1.19h0c22.85,89.09,129,126.22,202.41,70.78l2.24-1.69,2.25,1.7c73.39,55.43,179.55,18.31,202.4-70.79h0l8.75-1.2c88.77-12.12,138.36-108.91,96.33-188L735,553.88,763.3,531C827.07,479.42,827.07,382.18,763.29,330.63Z" transform="translate(-50.47 -11.11)"/></svg>