<?xml version="1.0" encoding="UTF-8"?>
<svg id="_圖層_1" data-name="圖層 1" xmlns="http://www.w3.org/2000/svg" viewBox="0 0 762.35 168.47">
  <defs>
    <style>
      .cls-1 {
        fill: none;
        stroke: #231815;
        stroke-linecap: round;
        stroke-linejoin: round;
        stroke-width: 3px;
      }
    </style>
  </defs>
  <path class="cls-1" d="M103.46,39.59c1.53-.34,2.91-1.12,4.02-2.22,12.29-12.13,29.23-21.97,48.65-23.9,20.33-2.02,42.96,6.62,49.45,22.01,19.45-17.67,49.34-27.81,78.92-26.76,17.72,.63,37.28,6.61,43.56,19.74C368.98,1.9,432.68,.38,475.55,24.91c27.26-28.21,86.78-31.54,118.78-6.63,2.06,1.61,4.11,3.35,6.83,4.15,6.06,1.79,12.34-1.74,17.55-4.78,12.55-7.34,27.37-13.15,42.97-12.93s31.75,7.87,35.67,19.82c2.12,6.45,1.76,14.89,9.4,17.69,2.56,.94,5.49,.94,8.31,.87,16.38-.41,37.11-.76,44.04,11,4.8,8.15-.86,18.24-9.9,23.7-9.04,5.46-20.6,7.39-31.74,9.17,19.33,1.47,30.62,21.57,21.5,35.14-9.12,13.57-32.89,18.33-50.7,12.21-3.64-1.25-7.62-2.9-11.34-1.81-2.08,.61-3.63,1.99-5.13,3.29-13.61,11.83-31.86,21.73-52.08,21.8-20.22,.07-41.06-13-39.82-28.98-14.67,17.9-38.1,32.55-64.96,34.23-26.87,1.69-55.77-12.81-59.56-33.94-39.53,21.68-86.39,34.88-134.33,37.86-4.76,.3-9.78,.46-14.07-1.2-13.37-5.16-18.42-18.27-18.41-31.06-12.17,16.24-44.47,19.77-61.73,6.74-4.04-3.05-9.09-7.13-14.15-5.28-2.64,.96-3.99,3.24-5.33,5.28-8.08,12.29-23.26,21.52-40.35,24.52-4.08,.72-8.35,1.09-12.43,.37-15.86-2.81-19.94-18.92-20.76-31.77-7.16,16.58-32.21,23.71-54.34,24.06-15.29,.24-32.03-2.29-41.86-11.56-9.83-9.27-7.33-26.56,7.26-30.19-4.18-6.36-12.51-10.19-20.44-13.65-7.93-3.46-16.3-7.2-20.66-13.48-4.36-6.28-2.44-15.83,6.04-18.32,7.63-2.24,18.81,1.15,22.68-4.51,.95-1.39,1.1-3.02,1.38-4.58,1.99-11.36,12.01-21.63,25.4-26.03,12.53-4.12,27.57-2.96,38.94,2.86,1.62,.83,3.5,1,5.28,.61h0Z"/>
</svg>

