<?xml version="1.0" encoding="UTF-8"?>
<svg id="_圖層_1" data-name="圖層 1" xmlns="http://www.w3.org/2000/svg" viewBox="0 0 762.23 168.38">
  <defs>
    <style>
      .cls-1 {
        fill: none;
        stroke: #231815;
        stroke-miterlimit: 10;
        stroke-width: 3px;
      }
    </style>
  </defs>
  <path class="cls-1" d="M80.46,39.75c.77,2.06,1.7,4.07,2.77,6.03-10.44-.24-20.9,.04-31.3,.85-12.19,.95-25.53,3.21-32.97,11.36s-3.09,17.24,9.32,23.69c-11.9,1.77-22.77,9.1-25.93,18.88s2.63,21.39,13.77,25.33c11.42,4.04,26.14,.2,35.82,6.68,3.57,2.4,5.83,5.86,8.57,8.94,9.51,10.68,25.91,16.76,41.74,15.48,15.83-1.28,30.54-9.88,37.43-21.89,12.18,11.2,27.76,21,45.77,22.37s37.99-8.43,40.28-23.46c10.74,8.09,21.99,16.42,35.87,19.77,13.88,3.35,31.16,.1,38.03-10.54,2.18,14.77,21.59,24.49,39.32,23.59,17.73-.91,33.46-9.79,46.61-19.8,2.35-1.79,5.8-3.71,8.36-2.15,1.16,.71,1.67,1.93,2.23,3.04,5.36,10.51,23.14,14.83,34.39,8.36,3.83-2.2,7.13-5.47,11.71-6.1,3.23-.44,6.46,.54,9.58,1.36,26.3,6.92,56.34,2.94,78.81-10.43,10.16,11.69,27.52,18.71,44.76,18.1,17.24-.61,33.84-8.83,42.78-21.19,15.37,7.24,31.78,14.69,49.39,14.05,17.61-.64,35.82-13.02,33.37-27.64,6.87,1.14,20.17,1.05,29.45,.64,9.87-.44,21.2-.8,26.73-7.67,4.12-5.11,3.58-12.53-1.26-17.18-4.83-4.66-19.59-9.75-19.59-9.75,0,0,5.19-1.18,8.21-2.65,12.74-6.18,19.98-19.28,14.24-30.63-5.74-11.35-20.06-18.35-34.56-20.49s-29.35-.2-43.88,1.74c-.43-10.07-8.69-19.06-19.06-24.16-10.37-5.1-22.6-6.84-34.6-7.52-23.74-1.35-51.1,2.8-63.59,19.76-15.89-9.15-32.53-18.55-51.61-20.86-19.08-2.3-41.28,4.86-47.64,20.11-1.1,2.64-2.3,5.93-5.58,6.46-1.98,.32-3.92-.57-5.64-1.44-26.21-13.27-55.32-31.14-84.33-22.91-14.28,4.05-25.01,13.83-37.75,20.58-3.06,1.62-6.65,3.13-10.16,2.38-3.47-.74-5.74-3.43-7.77-5.9-11.06-13.39-28.63-26.8-47.43-22.68-11.7,2.56-19.73,11.2-28.73,17.96-9,6.76-22.51,12.03-32.79,6.7-5.06-2.63-8.04-7.25-11.99-10.98-16.03-15.14-50.32-10.99-60.59,7.32,0,0-5.95-3.41-14.12-7.49-19.5-9.73-43.29,5.85-36.47,23.98Z"/>
</svg>