<?xml version="1.0" encoding="UTF-8"?>
<svg id="_圖層_1" data-name="圖層 1" xmlns="http://www.w3.org/2000/svg" viewBox="0 0 107.94 137.93">
  <defs>
    <style>
      .cls-1 {
        fill: #fff;
      }

      .cls-2 {
        fill: #251714;
      }
    </style>
  </defs>
  <g>
    <path class="cls-1" d="M53.57,125.02c-7.26,7.32-18.76,8.3-26.89,1.44-8.14-6.86-11.59-21.41-6.83-31.36-10.33-2.96-18.21-15.69-18.68-28.51-.47-12.82,5.82-24.88,14.86-30.84-1.53-11.75,4.3-23.22,12.53-28.91S46.95,.43,56.6,2c5.4,.88,11.5,3.12,13.96,9.15,.49,1.21,.84,2.56,1.66,3.47,.66,.73,1.55,1.07,2.39,1.4,8.42,3.33,16.27,9.15,22.66,16.79,6.19,7.41,11.24,18.11,8.84,27.85-1.32,5.36-4.68,9.45-7.93,13.33,7.47,10,8.47,25.79,3.08,36.87-5.39,11.09-16.37,17.18-27.18,16.25-1.14,5.54-5.54,9.64-10.28,9.58-4.74-.06-9.42-4.26-10.94-9.84"/>
    <path class="cls-2" d="M52.69,124.14c-5.86,5.81-14.94,7.53-22.26,3.41-6.78-3.82-10.57-11.69-11.33-19.22-.43-4.26,0-8.68,1.84-12.59,.34-.73,.08-1.59-.75-1.84-8.4-2.5-13.96-10.81-16.34-18.84-2.7-9.07-1.52-19.06,3.05-27.33,2.38-4.31,5.65-8.15,9.76-10.89,.34-.23,.67-.64,.62-1.08-1.21-9.83,2.61-20.13,10.23-26.55C35.63,2.37,47.3,1.42,57.36,3.4c4.14,.81,8.5,2.49,10.93,6.14,1.29,1.94,1.56,4.65,3.33,6.25,.86,.77,1.96,1.15,3.01,1.58,1.25,.51,2.47,1.08,3.67,1.69,9.34,4.76,17.76,12.45,22.87,21.65,2.79,5.03,4.68,10.8,4.21,16.61-.5,6.23-4.23,11.16-8.1,15.78-.33,.39-.54,1.05-.2,1.51,10.85,14.73,7.85,39.3-8.95,48.31-4.32,2.31-9.2,3.32-14.07,2.93-.52-.04-1.09,.42-1.21,.92-.95,4.28-4.28,8.72-9.07,8.66s-8.5-4.62-9.73-8.92c-.44-1.54-2.86-.89-2.41,.66,1.55,5.39,6.15,10.68,12.14,10.75s10.3-5.13,11.48-10.5l-1.21,.92c9.64,.77,19-3.81,24.86-11.4s7.94-18.34,6.49-28.09c-.82-5.54-2.83-10.99-6.17-15.52l-.2,1.51c3.61-4.31,7.17-8.84,8.38-14.46s.23-11.11-1.84-16.21c-4.19-10.32-12.47-19.01-21.82-24.9-2.37-1.49-4.86-2.8-7.45-3.9-1.21-.51-2.7-.85-3.48-1.99s-1.01-2.53-1.6-3.72c-2.12-4.29-6.38-6.85-10.84-8.12C55.35,.12,49.74-.26,44.52,.17c-5.61,.46-11.13,2.05-15.88,5.12-9.9,6.41-15.29,18.86-13.86,30.47l.62-1.08C-1.57,46.01-4.9,71.49,7.33,87.43c3.12,4.06,7.23,7.41,12.19,8.88l-.75-1.84c-7.21,15.41,3.01,39.36,22.03,37.81,5.18-.42,9.97-2.73,13.65-6.38,1.14-1.13-.62-2.9-1.77-1.77h0Z"/>
  </g>
  <g>
    <path class="cls-2" d="M62.85,77.99c-2.56,0-3.86-.64-5.11-1.25-1.17-.57-2.27-1.11-4.53-1.11v-1.77c2.56,0,3.86,.64,5.11,1.25,1.17,.57,2.27,1.11,4.53,1.11s3.36-.54,4.53-1.11c1.25-.61,2.55-1.25,5.11-1.25v1.77c-2.26,0-3.36,.54-4.53,1.11-1.25,.61-2.55,1.25-5.11,1.25Z"/>
    <polygon class="cls-2" points="71.86 78.23 79.43 74.96 71.86 71.68 71.86 78.23"/>
    <path class="cls-2" d="M53.59,76.46h-2c0-2.56,.69-3.9,1.29-5.09,.58-1.13,1.07-2.1,1.07-4.18s-.5-3.05-1.07-4.18c-.61-1.19-1.29-2.53-1.29-5.09s.69-3.9,1.29-5.09c.58-1.13,1.07-2.1,1.07-4.18h2c0,2.56-.69,3.9-1.29,5.09-.58,1.13-1.07,2.1-1.07,4.18s.5,3.05,1.07,4.18c.61,1.19,1.29,2.53,1.29,5.09s-.69,3.9-1.29,5.09c-.58,1.13-1.07,2.1-1.07,4.18Z"/>
    <polygon class="cls-2" points="58.06 48.99 54.78 41.42 51.51 48.99 58.06 48.99"/>
    <circle class="cls-2" cx="53.48" cy="74.75" r="2.71"/>
  </g>
</svg>