<?xml version="1.0" encoding="UTF-8"?>
<svg id="_圖層_1" data-name="圖層 1" xmlns="http://www.w3.org/2000/svg" viewBox="0 0 39.64 132.53">
  <defs>
    <style>
      .cls-1 {
        fill: #ff621d;
      }

      .cls-1, .cls-2 {
        stroke-width: .79px;
      }

      .cls-1, .cls-2, .cls-3, .cls-4 {
        stroke: #000;
        stroke-miterlimit: 10;
      }

      .cls-2, .cls-4 {
        fill: #fff;
      }

      .cls-3 {
        fill: #00f5ff;
      }

      .cls-3, .cls-4 {
        stroke-width: .85px;
      }
    </style>
  </defs>
  <rect class="cls-3" x="-10.55" y="36.6" width="83.65" height="15.88" transform="translate(75.81 13.26) rotate(90)"/>
  <rect class="cls-1" x="-25.48" y="88.07" width="72.26" height="15.88" transform="translate(106.66 85.37) rotate(90)"/>
  <rect class="cls-4" x="-12.86" y="34.31" width="83.65" height="15.88" transform="translate(71.21 13.29) rotate(90)"/>
  <rect class="cls-2" x="-27.79" y="86.1" width="72.26" height="15.88" transform="translate(102.37 85.7) rotate(90)"/>
  <g>
    <path d="M6.11,74.23l.34-2.78h-1.01c-.22,0-.56,.02-1.01,.05-.02-.02-.04-.13-.04-.32s.01-.3,.04-.32c.34,.03,.68,.05,1.03,.05h1.04l.34-2.65h-1.06c-.23,0-.58,.02-1.04,.05-.02-.02-.04-.13-.04-.32s.01-.3,.04-.32c.35,.03,.71,.05,1.07,.05h1.08l.32-2.51h.52l-.32,2.51h2.41l.34-2.51h.52l-.32,2.51h1.01c.23,0,.56-.02,1-.05,.02,.02,.04,.13,.04,.32s-.01,.3-.04,.32c-.34-.03-.68-.05-1.02-.05h-1.03l-.32,2.65h1.03c.24,0,.58-.02,1.03-.05,.02,.02,.04,.13,.04,.32s-.01,.3-.04,.32c-.35-.03-.71-.05-1.07-.05h-1.07l-.32,2.78h-.53l.34-2.78h-2.42l-.17,1.39-.17,1.39h-.52Zm.92-3.34h2.42l.31-2.65h-2.41l-.17,1.33-.16,1.32Z"/>
    <path d="M3.16,86.44s-.04-.13-.04-.3,.01-.27,.04-.31c.62,.05,1.43,.07,2.45,.07h2.45v-2.46h-2.09c-.7,0-1.39,.02-2.08,.07-.02-.04-.04-.14-.04-.31s.01-.27,.04-.3c.9,.05,2.1,.07,3.6,.07h2.68c.89,0,1.78-.02,2.66-.07,.02,.03,.04,.13,.04,.3s-.01,.27-.04,.31c-.53-.05-1.23-.07-2.11-.07h-2.12v2.46h2.48c.83,0,1.66-.02,2.48-.07,.02,.04,.04,.14,.04,.31s-.01,.27-.04,.3c-.65-.05-1.52-.07-2.6-.07H5.75c-.86,0-1.73,.02-2.59,.07Zm5.17-6.16c-.19,0-.3-.02-.32-.05,.03-.37,.05-.75,.05-1.14v-1.15H4.01v.72c0,.3,.01,.54,.04,.72-.02,.03-.12,.05-.3,.05s-.28-.02-.3-.05c.03-.3,.05-.62,.05-.94v-.47c0-.17,0-.32-.02-.47,0-.05,0-.07,.02-.07,.57,.05,1.33,.07,2.28,.07h2.28v-.73h-1.97c-.66,0-1.31,.02-1.96,.07-.02-.04-.04-.14-.04-.31s.01-.26,.04-.29c.53,.05,1.23,.07,2.11,.07h4.25c.71,0,1.42-.02,2.11-.07,.02,.03,.04,.13,.04,.29s-.01,.27-.04,.31c-.49-.05-1.16-.07-2-.07h-2v.73h2.32c.96,0,1.73-.02,2.3-.07,.02,0,.02,.02,.02,.07-.02,.14-.02,.3-.02,.47v.47c0,.32,.02,.63,.05,.94-.02,.03-.12,.05-.3,.05-.18,0-.28-.02-.3-.05,.02-.18,.04-.42,.04-.72v-.72h-4.1v1.15c0,.39,.02,.77,.05,1.14-.02,.03-.13,.05-.31,.05Zm-4.38,2.22s-.02-.01-.02-.04c.02-.06,.02-.18,.02-.37v-.58c0-.33-.02-.64-.05-.95,0-.04,.02-.06,.05-.06,.34,.04,.74,.06,1.22,.06h.62c.26,0,.47-.01,.61-.04,.02,0,.02,.01,.02,.04-.02,.14-.02,.3-.02,.47v.48c0,.33,.02,.64,.05,.95,0,.02-.02,.04-.05,.04-.14-.02-.35-.04-.61-.04h-1.24c-.26,0-.47,.01-.61,.04Zm.52,3.34c-.14-.17-.27-.29-.37-.36,.43-.22,.81-.5,1.13-.82,.34-.34,.59-.71,.74-1.1,.13,.02,.26,.07,.38,.14,.13,.07,.18,.12,.17,.15-.02,.02-.04,.04-.08,.06-.08,.02-.14,.07-.17,.14-.1,.16-.17,.28-.23,.36,.65,.35,1.13,.68,1.44,1l-.24,.36c-.34-.33-.83-.67-1.46-1.03-.36,.44-.8,.81-1.31,1.1Zm-.02-5.74s-.04-.12-.04-.27,.01-.23,.04-.25c.18,.02,.42,.04,.72,.04h1.45c.24,0,.48-.01,.72-.04,.02,.02,.04,.1,.04,.25s-.01,.23-.04,.25c-.18-.02-.42-.04-.72-.04h-.73c-.42,0-.9,.02-1.44,.06Zm-.02,1.94h1.51v-1.07h-1.51v1.07Zm.26-3s-.04-.1-.04-.24,.01-.23,.04-.26c.36,.04,.8,.06,1.32,.06h.66c.22,0,.44-.01,.66-.04,.02,.02,.04,.1,.04,.24s-.01,.22-.04,.24c-.15-.02-.37-.04-.66-.04h-1.32c-.22,0-.44,.01-.66,.04Zm2.38,3.48s-.02-.02-.02-.06c.02-.06,.02-.18,.02-.37v-.58c0-.33-.02-.64-.05-.95,0-.02,.02-.04,.05-.04,.16,.02,.37,.04,.62,.04h1.26c.26,0,.47-.01,.62-.04,.02,0,.02,.01,.02,.04-.02,.14-.02,.3-.02,.47v.48c0,.33,.02,.64,.05,.95,0,.02-.02,.04-.05,.04-.15-.02-.36-.04-.62-.04h-.64c-.49,0-.9,.02-1.25,.06Zm.46-.48h1.58v-1.07h-1.58v1.07Zm1.73,3.79c-.11-.16-.23-.28-.36-.37,.41-.22,.75-.49,1.02-.79,.3-.34,.49-.72,.58-1.13,.14,.02,.27,.05,.4,.11,.14,.06,.2,.1,.19,.14,0,.03-.03,.05-.07,.06-.07,.02-.12,.08-.14,.16-.06,.14-.12,.27-.18,.37,.74,.34,1.32,.68,1.73,1.02l-.24,.38c-.43-.37-1-.72-1.7-1.06-.3,.45-.71,.82-1.21,1.1Zm.05-6.79s-.04-.1-.04-.24,.01-.23,.04-.26c.38,.04,.83,.06,1.37,.06h.7c.23,0,.46-.01,.68-.04,.02,.02,.04,.1,.04,.24s-.01,.22-.04,.24c-.17-.02-.4-.04-.68-.04h-1.38c-.22,0-.45,.01-.68,.04Zm0,1.07s-.04-.13-.04-.28,.01-.23,.04-.25c.18,.02,.44,.04,.76,.04h1.51c.26,0,.51-.01,.76-.04,.02,.02,.04,.1,.04,.25s-.01,.23-.04,.25c-.18-.02-.43-.04-.76-.04h-.76c-.5,0-1.01,.02-1.51,.07Zm.96,2.41s-.02-.02-.02-.06c.02-.06,.02-.18,.02-.37v-.58c0-.33-.02-.64-.05-.95,0-.02,.02-.04,.05-.04,.16,.02,.37,.04,.64,.04h1.28c.27,0,.48-.01,.64-.04,.02,0,.02,.01,.02,.04-.02,.14-.02,.3-.02,.47v.48c0,.33,.02,.64,.05,.95,0,.02-.02,.04-.05,.04-.15-.02-.36-.04-.64-.04h-.65c-.5,0-.93,.02-1.27,.06Zm.47-.48h1.62v-1.07h-1.62v1.07Z"/>
    <path d="M6.9,96.6c-.05-.23-.13-.52-.24-.85-.46,.1-1.14,.24-2.05,.43-.68,.14-1.16,.24-1.44,.3l-.2-.54,.8-.14c.28-1.04,.53-2.24,.74-3.59h-.74c-.25,0-.49,.01-.73,.04-.02-.02-.04-.12-.04-.31s.01-.29,.04-.32c.35,.03,.71,.05,1.07,.05h2.15c.25,0,.6-.02,1.07-.05,.02,.02,.04,.13,.04,.32s-.01,.29-.04,.32c-.37-.03-.74-.05-1.1-.05h-1.12c-.32,1.55-.58,2.72-.79,3.49,.34-.06,.87-.16,1.6-.3,.26-.05,.46-.08,.6-.11-.22-.61-.48-1.16-.76-1.67l.46-.14c.25,.46,.49,.96,.72,1.52,.22,.54,.38,1.02,.48,1.43l-.5,.17Zm-3.46-6.98s-.04-.15-.04-.34,.01-.28,.04-.3c.22,.02,.51,.04,.89,.04h1.8c.3,0,.6-.01,.9-.04,.02,.02,.04,.12,.04,.3s-.01,.28-.04,.3c-.22-.02-.52-.04-.9-.04h-.9c-.6,0-1.2,.02-1.79,.07Zm2.3,9.1c-.05-.16-.16-.3-.32-.43,1.13-.35,1.94-.92,2.44-1.72,.41-.64,.66-1.56,.77-2.75h-.56c-.2,0-.39,0-.56,.02-.03,0-.05,0-.05-.02,.04-.16,.06-.48,.05-.95v-1.46c0-1-.02-1.8-.07-2.4,0-.03,.02-.05,.07-.05,.35,.03,.71,.05,1.08,.05h1.08c.14-.37,.26-.77,.37-1.21,.15,.04,.3,.1,.46,.19,.15,.08,.22,.15,.2,.19s-.05,.08-.1,.1c-.08,.04-.14,.11-.18,.22-.05,.12-.12,.29-.22,.52h1.52c.65,0,1.16-.02,1.52-.07,.03,0,.05,.02,.05,.07-.03,.4-.05,.8-.05,1.2v2.41c0,.4,.02,.8,.05,1.2,0,.03-.02,.05-.05,.05-.38-.03-.78-.05-1.19-.05h-1.2v3.86c0,.14,.03,.24,.09,.28,.06,.04,.19,.06,.4,.06h1.54c.17,0,.27-.05,.32-.16,.04-.11,.08-.38,.1-.81,.09,.09,.25,.16,.48,.22-.02,.5-.09,.84-.21,1.01-.12,.17-.33,.26-.64,.26h-1.61c-.4,0-.66-.06-.79-.17-.13-.11-.19-.34-.19-.68v-3.86h-1.16c-.13,1.31-.42,2.32-.86,3.02-.53,.86-1.38,1.48-2.57,1.87Zm2.29-7.56h2.03v-1.64h-2.03v1.64Zm0,2.16h2.03v-1.68h-2.03v1.68Zm2.56-2.16h2.11v-1.64h-2.11v1.64Zm0,2.16h2.11v-1.68h-2.11v1.68Zm2.72,3.6c-.02-.07-.06-.2-.12-.37-.93,.14-1.65,.25-2.17,.31l-.12-.48,.41-.04c.22-.62,.4-1.32,.55-2.08,.14,.03,.27,.08,.4,.16,.14,.08,.2,.14,.18,.19-.02,.04-.04,.07-.08,.1-.07,.04-.12,.11-.16,.22-.02,.06-.04,.16-.08,.28-.16,.51-.28,.88-.36,1.09l.64-.06,.64-.07c-.14-.3-.28-.58-.44-.82l.36-.16c.36,.52,.62,1.04,.78,1.57l-.41,.16Z"/>
    <path d="M5.24,110.71c-.19,0-.31-.02-.35-.06,.05-.89,.07-2.07,.07-3.55v-3.55c-.56,.76-1.15,1.42-1.76,1.97-.1-.2-.23-.38-.38-.54,.71-.59,1.38-1.32,2-2.2,.63-.89,1.14-1.81,1.54-2.77,.14,.06,.28,.12,.41,.2,.14,.1,.2,.17,.18,.22-.02,.04-.05,.07-.1,.08-.07,.03-.13,.1-.18,.2-.31,.66-.7,1.34-1.15,2.04v5.93c0,.82,.02,1.48,.07,1.97-.03,.04-.15,.06-.35,.06Zm4.45-.23c-.55,0-.93-.1-1.13-.29-.2-.19-.31-.56-.31-1.09v-6.77c0-.93-.02-1.7-.07-2.3,.17-.02,.34-.01,.5,.01,.22,.03,.32,.08,.32,.16-.13,.19-.19,.38-.19,.58v4c1.78-1.03,3.06-1.94,3.86-2.71l.4,.48c-.84,.75-2.26,1.69-4.26,2.81v3.78c0,.32,.06,.53,.17,.64,.12,.11,.35,.16,.7,.16h2.64c.34,0,.56-.15,.67-.46,.1-.27,.18-.87,.22-1.8,.18,.14,.36,.24,.55,.28-.06,1-.18,1.66-.34,1.98-.19,.37-.56,.55-1.1,.55h-2.64Z"/>
    <path d="M8.58,122.68c-.03-.17-.11-.38-.24-.62,.93,.04,1.67,.05,2.23,.02,.14,0,.23-.04,.28-.08s.08-.14,.08-.26v-2.86h-.13c-1.94,1.59-4.4,2.82-7.36,3.71-.09-.21-.21-.39-.36-.54,2.62-.7,4.85-1.73,6.7-3.08-.09,0-.22,.02-.4,.04-3.01,.24-5.05,.4-6.12,.47l-.1-.58,1.9-.12v-4.31c0-.57-.02-1.04-.06-1.43,0-.03,.02-.05,.06-.05,.38,.03,.78,.05,1.19,.05h1.19c.23-.46,.42-.88,.56-1.26,.17,.04,.33,.1,.49,.19,.16,.09,.22,.15,.2,.2s-.06,.08-.11,.1c-.08,.03-.14,.1-.19,.19-.02,.04-.06,.1-.11,.19-.1,.18-.17,.3-.22,.38h1.72c.73,0,1.3-.02,1.72-.07,.05,0,.07,.02,.07,.07-.05,.55-.07,1.3-.07,2.23v2.23c.53-.54,.99-1.11,1.39-1.69,.14,.08,.26,.18,.38,.29,.12,.12,.17,.19,.14,.23-.03,.04-.07,.06-.11,.08-.09,.02-.16,.07-.23,.16-.45,.58-.97,1.16-1.57,1.72v3.44c0,.26-.04,.46-.11,.59-.08,.13-.21,.22-.41,.28-.26,.06-1.06,.1-2.39,.1Zm-2.96-7.78h5.32v-1.34H5.62v1.34Zm0,1.82h5.32v-1.33H5.62v1.33Zm0,2c1.18-.08,2.8-.19,4.88-.34,.14-.12,.29-.24,.43-.36v-.82H5.62v1.51Z"/>
  </g>
  <g>
    <path d="M23.98,12.18l-.47-.17c.3-.7,.51-1.71,.62-3.05,.14,.02,.26,.06,.38,.11,.14,.06,.21,.11,.2,.16,0,.04-.02,.08-.06,.11-.06,.06-.1,.14-.11,.24-.05,.42-.1,.77-.16,1.07-.13,.67-.27,1.18-.42,1.54Zm1.52,5.44c-.19,0-.31-.02-.35-.06,.05-.9,.07-2.1,.07-3.6v-3.66c0-1.49-.02-2.7-.07-3.65,.17-.02,.34-.01,.5,.01,.21,.03,.31,.08,.31,.16-.13,.19-.19,.38-.19,.58v7.45c0,1.14,.02,2.04,.07,2.71-.03,.04-.15,.06-.35,.06Zm1.4-6.66c-.06-.22-.18-.56-.37-1.03-.17-.41-.34-.78-.52-1.13l.42-.2c.44,.83,.74,1.54,.9,2.12l-.43,.24Zm.07,6.66c-.1-.18-.23-.32-.4-.44,1.86-.96,2.95-2.4,3.29-4.32h-1.49c-.45,0-.94,.02-1.49,.06-.02-.03-.04-.15-.04-.34s.01-.31,.04-.34c.38,.05,.88,.07,1.52,.07h1.54c.05-.49,.07-1.07,.07-1.75v-1.33h-1.22c-.36,0-.77,.02-1.22,.06-.02-.03-.04-.14-.04-.33s.01-.3,.04-.33c.34,.04,.74,.06,1.22,.06h1.22v-1c0-.3-.02-.65-.05-1.03,.15-.02,.32-.01,.49,.01,.21,.03,.31,.08,.31,.16-.13,.19-.19,.38-.19,.58v1.28h1.33c.53,0,.97-.02,1.33-.06,.02,0,.04,.02,.04,.06-.02,.22-.04,.52-.04,.9v2.72h.59c.14,0,.33,0,.59-.02,.02,0,.04,.11,.04,.3s-.01,.31-.04,.35c-.44-.05-1.04-.07-1.79-.07h-1.79c.33,1.02,.79,1.88,1.39,2.6,.63,.78,1.37,1.32,2.21,1.63-.18,.14-.32,.31-.42,.52-.85-.36-1.59-.94-2.23-1.75-.6-.75-1.07-1.66-1.42-2.72-.41,1.96-1.54,3.46-3.41,4.49Zm3.53-5.32h2.2v-3.08h-2.11v1.32c0,.7-.03,1.28-.08,1.76Z"/>
    <path d="M28.95,29.62c-.2,0-.32-.02-.36-.06,.05-.56,.07-1.32,.07-2.28v-2.28c-.59,.82-1.31,1.59-2.16,2.3-.82,.7-1.65,1.25-2.48,1.64-.11-.17-.24-.32-.4-.47,.94-.4,1.88-1.01,2.81-1.82,.93-.82,1.67-1.68,2.23-2.6v-3.01h-2.35c-.78,0-1.56,.02-2.34,.07-.02-.04-.04-.16-.04-.36s.01-.32,.04-.35c.58,.05,1.36,.07,2.34,.07h2.35v-.89c0-.35-.01-.66-.04-.92,.15-.02,.32-.01,.49,.01,.21,.03,.31,.08,.31,.16-.13,.19-.19,.38-.19,.58v1.07h2.4c.81,0,1.61-.02,2.4-.07,.02,.03,.04,.15,.04,.35s-.01,.31-.04,.34c-.4-.03-.8-.05-1.2-.05h-3.6v2.96c.53,.97,1.26,1.86,2.19,2.68s1.9,1.43,2.91,1.82c-.18,.14-.32,.32-.42,.52-.86-.38-1.71-.93-2.54-1.64s-1.54-1.5-2.14-2.35v2.27c0,.95,.02,1.71,.07,2.27-.03,.04-.15,.06-.36,.06Zm-4.56-4.03c-.08-.1-.23-.22-.46-.37,.54-.43,.99-.97,1.37-1.61,.38-.66,.65-1.38,.83-2.16,.15,.02,.3,.07,.43,.13,.15,.07,.22,.14,.2,.19,0,.05-.04,.08-.08,.11-.07,.05-.12,.13-.16,.24-.09,.3-.2,.61-.32,.92,.67,.62,1.15,1.12,1.44,1.48l-.4,.38c-.3-.38-.73-.83-1.28-1.36-.42,.83-.95,1.51-1.57,2.04Zm9.26-.14c-.42-.5-1.1-1.14-2.04-1.94-.34,.68-.73,1.24-1.18,1.68-.09-.1-.24-.22-.47-.35,.45-.39,.81-.88,1.09-1.45,.3-.6,.5-1.24,.62-1.93,.15,.02,.3,.07,.43,.13,.15,.07,.22,.13,.22,.18s-.04,.09-.08,.12c-.07,.05-.12,.12-.14,.23-.06,.23-.15,.54-.29,.91,.87,.69,1.62,1.36,2.24,2.02l-.41,.41Z"/>
    <path d="M25.6,35.68c-.21-.18-.5-.39-.89-.62-.34-.22-.71-.41-1.1-.58l.32-.42c.37,.15,.74,.33,1.1,.54,.38,.22,.67,.43,.88,.61l-.31,.47Zm-1.21,5.72l-.5-.32c.27-.51,.55-1.1,.84-1.76,.33-.74,.61-1.42,.84-2.04,.37,.26,.54,.44,.5,.54-.02,.04-.05,.07-.1,.1-.07,.04-.13,.11-.17,.2-.5,1.3-.98,2.39-1.42,3.29Zm1.62-8.82c-.17-.21-.44-.44-.82-.71-.35-.26-.7-.47-1.04-.64l.35-.4c.34,.16,.68,.36,1.03,.6,.35,.24,.63,.46,.83,.66l-.35,.48Zm.17,9.02c-.14-.13-.3-.25-.46-.36,.72-.66,1.28-1.42,1.67-2.28,.14,.05,.28,.11,.41,.19,.14,.08,.21,.14,.19,.19-.02,.04-.06,.07-.11,.09-.08,.03-.14,.1-.19,.19-.15,.28-.33,.56-.53,.85-.35,.49-.68,.86-.97,1.13Zm.62-2.89s-.07-.02-.07-.07c.06-.26,.08-.76,.07-1.53v-4.01c0-.78-.02-1.39-.07-1.85,0-.05,.02-.07,.07-.07,.41,.05,.96,.07,1.67,.07h.84c.35,0,.63-.01,.83-.04,.05,0,.07,.01,.07,.04-.05,.46-.07,1.09-.07,1.88v1.9c0,1.5,.02,2.7,.07,3.6,0,.02-.02,.04-.07,.04-.2-.02-.48-.04-.83-.04h-.84c-.7,0-1.26,.02-1.67,.07Zm.52-5.17h2.29v-1.74h-2.29v1.74Zm0,2.28h2.29v-1.76h-2.29v1.76Zm0,2.29h2.29v-1.78h-2.29v1.78Zm3.01,3.01c-.18-.3-.38-.61-.61-.92-.32-.43-.58-.76-.78-.98l.42-.25c.69,.8,1.16,1.42,1.42,1.86l-.44,.3Zm1.13-2.35c-.18,0-.3-.02-.34-.05,.05-.42,.07-.99,.07-1.69v-3.4c0-.7-.02-1.28-.07-1.74,.16-.02,.32-.01,.48,.01,.2,.03,.3,.08,.3,.16-.13,.19-.19,.38-.19,.58v3.05c0,1.26,.02,2.28,.07,3.04-.03,.03-.14,.05-.32,.05Zm.16,2.8c-.03-.21-.09-.39-.18-.55,.7,.02,1.23,.02,1.58,0,.11,0,.19-.03,.23-.07,.04-.04,.06-.1,.06-.2v-7.55c0-1.03-.02-1.88-.07-2.56,.17-.02,.33-.01,.49,.01,.21,.03,.31,.08,.31,.16-.13,.19-.19,.38-.19,.58v9.35c0,.22-.04,.38-.11,.49-.06,.1-.18,.18-.34,.24-.21,.06-.8,.1-1.79,.1Z"/>
    <path d="M25.6,47.68c-.21-.18-.5-.39-.89-.62-.34-.22-.71-.41-1.1-.58l.32-.42c.37,.15,.74,.33,1.1,.54,.38,.22,.67,.43,.88,.61l-.31,.47Zm-1.21,5.72l-.5-.32c.27-.51,.55-1.1,.84-1.76,.33-.74,.61-1.42,.84-2.04,.37,.26,.54,.44,.5,.54-.02,.04-.05,.07-.1,.1-.07,.04-.13,.11-.17,.2-.5,1.3-.98,2.39-1.42,3.29Zm1.62-8.82c-.17-.21-.44-.44-.82-.71-.35-.26-.7-.47-1.04-.64l.35-.4c.34,.16,.68,.36,1.03,.6,.35,.24,.63,.46,.83,.66l-.35,.48Zm.17,9.02c-.14-.13-.3-.25-.46-.36,.72-.66,1.28-1.42,1.67-2.28,.14,.05,.28,.11,.41,.19,.14,.08,.21,.14,.19,.19-.02,.04-.06,.07-.11,.09-.08,.03-.14,.1-.19,.19-.15,.28-.33,.56-.53,.85-.35,.49-.68,.86-.97,1.13Zm.62-2.89s-.07-.02-.07-.07c.06-.26,.08-.76,.07-1.53v-4.01c0-.78-.02-1.39-.07-1.85,0-.05,.02-.07,.07-.07,.41,.05,.96,.07,1.67,.07h.84c.35,0,.63-.01,.83-.04,.05,0,.07,.01,.07,.04-.05,.46-.07,1.09-.07,1.88v1.9c0,1.5,.02,2.7,.07,3.6,0,.02-.02,.04-.07,.04-.2-.02-.48-.04-.83-.04h-.84c-.7,0-1.26,.02-1.67,.07Zm.52-5.17h2.29v-1.74h-2.29v1.74Zm0,2.28h2.29v-1.76h-2.29v1.76Zm0,2.29h2.29v-1.78h-2.29v1.78Zm3.01,3.01c-.18-.3-.38-.61-.61-.92-.32-.43-.58-.76-.78-.98l.42-.25c.69,.8,1.16,1.42,1.42,1.86l-.44,.3Zm1.13-2.35c-.18,0-.3-.02-.34-.05,.05-.42,.07-.99,.07-1.69v-3.4c0-.7-.02-1.28-.07-1.74,.16-.02,.32-.01,.48,.01,.2,.03,.3,.08,.3,.16-.13,.19-.19,.38-.19,.58v3.05c0,1.26,.02,2.28,.07,3.04-.03,.03-.14,.05-.32,.05Zm.16,2.8c-.03-.21-.09-.39-.18-.55,.7,.02,1.23,.02,1.58,0,.11,0,.19-.03,.23-.07,.04-.04,.06-.1,.06-.2v-7.55c0-1.03-.02-1.88-.07-2.56,.17-.02,.33-.01,.49,.01,.21,.03,.31,.08,.31,.16-.13,.19-.19,.38-.19,.58v9.35c0,.22-.04,.38-.11,.49-.06,.1-.18,.18-.34,.24-.21,.06-.8,.1-1.79,.1Z"/>
    <path d="M25.4,65.63c-.19,0-.31-.02-.35-.06,.05-.89,.07-2.08,.07-3.58v-3.58c-.46,.68-.94,1.28-1.44,1.8-.06-.17-.18-.34-.34-.52,.6-.6,1.17-1.34,1.71-2.21,.54-.88,.99-1.79,1.34-2.73,.14,.05,.28,.11,.41,.19,.14,.08,.2,.14,.18,.19-.02,.04-.05,.07-.1,.1-.08,.04-.14,.11-.18,.22-.3,.72-.64,1.42-1.04,2.1v6.01c0,.85,.02,1.52,.07,2-.03,.04-.14,.06-.34,.06Zm3.78-.04c-.04-.18-.11-.38-.2-.59,.55,.03,.97,.03,1.26,0,.14,0,.2-.07,.2-.2v-7.14h-2.06c-.3,.79-.69,1.53-1.15,2.21-.02-.02-.05-.04-.11-.08-.17-.14-.29-.22-.36-.26,.82-1.1,1.46-2.69,1.91-4.75,.15,.03,.3,.08,.43,.16,.15,.08,.22,.14,.22,.19,0,.04-.04,.08-.08,.11-.07,.05-.12,.12-.14,.23-.18,.62-.34,1.18-.5,1.66h5.2l.12-.02,.36,.12c-.21,1.09-.38,1.89-.52,2.4l-.48-.1c.12-.53,.23-1.14,.34-1.85h-2.6v7.14c0,.2-.03,.35-.08,.45-.05,.1-.15,.18-.28,.23-.2,.07-.68,.11-1.45,.11Zm-1.87-1.64c-.06-.05-.2-.14-.42-.28-.03-.02-.06-.04-.07-.05,.73-.93,1.3-2.24,1.73-3.92,.16,.03,.3,.08,.43,.14,.15,.07,.22,.14,.2,.19,0,.05-.04,.08-.08,.11-.07,.05-.12,.13-.16,.24-.18,.62-.39,1.19-.61,1.72-.3,.7-.64,1.32-1.02,1.85Zm6.32-.05c-.09-.51-.28-1.18-.58-1.99-.3-.82-.62-1.52-.95-2.11l.49-.17c.36,.65,.69,1.35,.98,2.11s.49,1.42,.59,1.98l-.54,.18Z"/>
    <path d="M24.47,77.36c-.18,0-.3-.02-.34-.06,.05-.54,.07-1.26,.07-2.16v-4.34c0-.9-.02-1.62-.07-2.16,0-.02,.02-.04,.07-.04,.16,.02,.38,.04,.65,.04h.66c.24-.66,.43-1.32,.56-1.96,.16,.04,.31,.1,.46,.19,.15,.08,.21,.15,.2,.2-.02,.04-.04,.07-.08,.1-.07,.04-.13,.12-.17,.23-.18,.55-.33,.97-.44,1.25h1.02c.34,0,.68-.02,1.02-.05,.05,0,.07,.02,.07,.05-.05,.5-.07,1.18-.07,2.04v2.04c0,1.5,.02,2.7,.07,3.6,0,.05-.02,.07-.07,.07-.41-.05-.96-.07-1.67-.07h-1.68v.49c0,.17,0,.33,.02,.49,0,.04-.1,.06-.29,.06Zm.26-5.33h2.81v-2.87h-2.81v2.87Zm0,3.74h2.81v-3.22h-2.81v3.22Zm5.77,1.49c-.03-.25-.09-.44-.18-.56,.62,.05,1.19,.07,1.73,.07,.23,0,.4-.06,.49-.18,.19-.21,.34-.86,.46-1.94,.12-1.1,.22-2.93,.31-5.47h-3.3c-.34,.87-.73,1.61-1.15,2.23-.07-.06-.23-.17-.48-.31,.79-1.05,1.39-2.54,1.8-4.46,.15,.04,.3,.1,.43,.17,.15,.08,.22,.14,.22,.19,0,.04-.04,.08-.08,.11-.07,.05-.12,.12-.14,.23-.16,.59-.29,1.03-.4,1.31h3.66v.34c-.1,2.83-.21,4.78-.32,5.86-.11,1.12-.28,1.82-.52,2.1-.19,.22-.47,.35-.83,.37-.42,.03-.99,.02-1.69-.04Zm1.07-2.94c-.18-.36-.46-.81-.83-1.34-.42-.61-.78-1.09-1.08-1.45l.46-.26c.9,1.11,1.54,2.03,1.92,2.75l-.47,.31Z"/>
  </g>
</svg>