<?xml version="1.0" encoding="UTF-8"?>
<svg id="_圖層_1" data-name="圖層 1" xmlns="http://www.w3.org/2000/svg" viewBox="0 0 108.08 136.03">
  <defs>
    <style>
      .cls-1 {
        fill: #fff;
      }

      .cls-2 {
        fill: #231815;
      }
    </style>
  </defs>
  <g>
    <path class="cls-1" d="M53.72,124.82c-7.26,8.6-18.76,11.61-26.89,6.19-8.14-5.42-11.59-19.37-6.83-30.16-10.33-1.14-18.21-12.48-18.68-25.22-.47-12.74,5.82-25.91,14.86-33.45-1.53-11.48,4.3-23.98,12.53-31.12S47.09,1.39,56.74,1.26c5.4-.07,11.5,1.09,13.96,6.69,.49,1.12,.84,2.41,1.66,3.18,.66,.62,1.55,.79,2.39,.98,8.42,1.85,16.27,6.28,22.66,12.8,6.19,6.32,11.24,16.13,8.84,26.29-1.32,5.6-4.68,10.28-7.93,14.72,7.47,8.68,8.47,24.29,3.08,36.33s-16.37,20.07-27.18,21.04c-1.14,5.74-5.54,10.61-10.28,11.39-4.74,.78-9.42-2.6-10.94-7.91"/>
    <path class="cls-2" d="M52.83,123.94c-5.06,5.91-13.16,10.15-21.05,7.98s-11.54-9.66-12.48-16.93c-.59-4.54-.05-9.29,1.78-13.51,.4-.93-.08-1.76-1.08-1.88-6.33-.76-11.23-5.62-14.07-11.05-3.42-6.53-4.09-14.16-2.72-21.34s4.76-14.43,9.7-20.08c1.2-1.38,2.53-2.6,3.87-3.83,.77-.71,.61-1.31,.52-2.27-.08-.9-.12-1.8-.12-2.7,.01-3.75,.76-7.45,2.02-10.98,2.52-7.06,7.17-13.43,13.35-17.71s13.98-6.59,21.67-7.03c3.23-.19,6.56-.19,9.66,.86,1.42,.48,2.76,1.23,3.83,2.29,1.22,1.21,1.81,2.67,2.47,4.21,.74,1.72,1.85,2.77,3.69,3.22s3.63,.88,5.41,1.5c3.7,1.29,7.2,3.11,10.43,5.33,6.3,4.34,11.84,10.37,14.42,17.68,1.32,3.73,1.86,7.76,1.21,11.68s-2.52,7.71-4.74,11.12c-1.06,1.63-2.21,3.21-3.36,4.78-.34,.47-.14,1.12,.2,1.51,5.9,6.97,7.07,17.24,5.54,25.96-1.69,9.59-7.03,18.48-15.09,24.04-4.05,2.8-8.73,4.76-13.66,5.23-.53,.05-1.08,.35-1.21,.92-.95,4.49-4.06,9.25-8.78,10.39s-8.74-2.66-10.03-6.91c-.47-1.54-2.88-.88-2.41,.66,1.63,5.38,6.59,9.79,12.48,8.78s9.99-6.78,11.15-12.27l-1.21,.92c9.94-.96,18.7-6.97,24.43-14.97,6.12-8.55,8.51-19.49,6.92-29.85-.82-5.35-2.85-10.53-6.36-14.68l.2,1.51c3.4-4.65,6.81-9.52,8.1-15.23s.45-11.14-1.75-16.27c-4.33-10.13-13.66-17.9-23.72-21.98-2.51-1.02-5.08-1.6-7.67-2.33-1.48-.42-1.77-1.47-2.3-2.77-.48-1.18-1.09-2.27-1.91-3.25C67.21,1.19,62.42,.13,58.05,.02c-10.83-.29-21.98,2.98-30.23,10.15-8.84,7.69-14.38,20.26-12.9,32.01l.37-.88C.42,53.83-6.34,79.8,7.67,95.44c3.23,3.61,7.5,6.07,12.33,6.65l-1.08-1.88c-3.51,8.13-3.1,18.09,1.53,25.73,2.12,3.49,5.15,6.29,8.97,7.81s8.32,1.54,12.34,.41c5.03-1.42,9.47-4.51,12.84-8.46,1.04-1.22-.72-2.99-1.77-1.77h0Z"/>
  </g>
  <g>
    <path class="cls-2" d="M62.99,77.72c-2.56,0-3.86-.64-5.11-1.25-1.17-.57-2.27-1.11-4.53-1.11v-1.77c2.56,0,3.86,.64,5.11,1.25,1.17,.57,2.27,1.11,4.53,1.11s3.36-.54,4.53-1.11c1.25-.61,2.55-1.25,5.11-1.25v1.77c-2.26,0-3.36,.54-4.53,1.11-1.25,.61-2.55,1.25-5.11,1.25Z"/>
    <polygon class="cls-2" points="72.01 77.96 79.57 74.69 72.01 71.41 72.01 77.96"/>
    <path class="cls-2" d="M54.22,75.21l-1.93,.52c-.66-2.47-.35-3.95-.07-5.25,.26-1.24,.49-2.31-.05-4.32s-1.27-2.82-2.12-3.76c-.89-.99-1.9-2.11-2.56-4.58s-.35-3.95-.07-5.25c.26-1.24,.49-2.31-.05-4.32l1.93-.52c.66,2.47,.35,3.95,.07,5.25-.26,1.24-.49,2.31,.05,4.32s1.27,2.82,2.12,3.76c.89,.99,1.9,2.11,2.56,4.58s.35,3.95,.07,5.25c-.26,1.24-.49,2.31,.05,4.32Z"/>
    <polygon class="cls-2" points="51.43 48.51 46.31 42.05 45.1 50.21 51.43 48.51"/>
    <circle class="cls-2" cx="53.62" cy="74.48" r="2.71"/>
  </g>
</svg>