<?xml version="1.0" encoding="UTF-8"?>
<svg id="_圖層_1" data-name=" 圖層 1" xmlns="http://www.w3.org/2000/svg" viewBox="0 0 236.33 399.23">
  <defs>
    <style>
      .cls-1 {
        fill: #fff;
      }

      .cls-2 {
        fill: none;
        stroke: #231815;
        stroke-miterlimit: 10;
        stroke-width: .91px;
      }
    </style>
  </defs>
  <path class="cls-1" d="M230.59,265.01c0-12.14-5.48-22.99-14.08-30.17,11.58-6.77,19.37-19.4,19.37-33.88s-7.79-27.11-19.37-33.88c8.6-7.18,14.08-18.03,14.08-30.17,0-15.56-9-28.99-22.02-35.3,5.9-6.87,9.48-15.82,9.48-25.62,0-20-14.87-36.48-34.06-38.84,.07-.85,.12-1.72,.12-2.59C184.11,15.73,166.74,.45,145.32,.45c-10.57,0-20.16,3.73-27.15,9.76C111.17,4.18,101.59,.45,91.01,.45c-21.42,0-38.79,15.28-38.79,34.12,0,.87,.05,1.73,.12,2.59-19.19,2.36-34.06,18.84-34.06,38.84,0,9.8,3.58,18.75,9.48,25.62-13.03,6.31-22.02,19.75-22.02,35.3,0,12.14,5.48,22.99,14.08,30.17C8.25,173.86,.45,186.49,.45,200.97s7.79,27.11,19.37,33.88c-8.6,7.18-14.08,18.03-14.08,30.17,0,15.56,9,28.99,22.02,35.3-5.9,6.87-9.48,15.82-9.48,25.62,0,18.89,13.27,34.66,30.91,38.33,0,.13-.01,.26-.01,.39,0,18.84,17.37,34.12,38.79,34.12,12.2,0,23.08-4.96,30.19-12.71,7.11,7.75,17.99,12.71,30.19,12.71,21.42,0,38.79-15.28,38.79-34.12,0-.13,0-.26-.01-.39,17.64-3.67,30.91-19.44,30.91-38.33,0-9.8-3.58-18.75-9.48-25.62,13.03-6.31,22.02-19.75,22.02-35.3Zm-166.69,61.06h-15.9v-23.2c0-3.62,3.56-6.56,7.95-6.56h0c4.39,0,7.95,2.94,7.95,6.56v23.2Zm8.42-61.16h-22.92v-33.45c0-5.22,5.13-9.46,11.46-9.46s11.46,4.23,11.46,9.46v33.45Zm17.58-60.05c0-2.61,2.56-4.73,5.73-4.73s5.73,2.12,5.73,4.73v16.73h-11.46v-16.73Zm14.65,98.57h-11.46v-16.73c0-2.61,2.56-4.73,5.73-4.73s5.73,2.12,5.73,4.73v16.73Zm29.65-41.41h-11.46v-16.73c0-2.61,2.56-4.73,5.73-4.73s5.73,2.12,5.73,4.73v16.73Zm4.52-67.99c0-5.22,5.13-9.46,11.46-9.46s11.46,4.23,11.46,9.46v33.45h-22.92v-33.45Zm31.47,118.09h-22.92v-33.45c0-5.22,5.13-9.46,11.46-9.46s11.46,4.23,11.46,9.46v33.45Zm33.99-38.12h-15.9v-23.2c0-3.62,3.56-6.56,7.95-6.56s7.95,2.94,7.95,6.56v23.2Z"/>
  <path class="cls-2" d="M230.59,265.01c0-12.14-5.48-22.99-14.08-30.17,11.58-6.77,19.37-19.4,19.37-33.88s-7.79-27.11-19.37-33.88c8.6-7.18,14.08-18.03,14.08-30.17,0-15.56-9-28.99-22.02-35.3,5.9-6.87,9.48-15.82,9.48-25.62,0-20-14.87-36.48-34.06-38.84,.07-.85,.12-1.72,.12-2.59C184.11,15.73,166.74,.45,145.32,.45c-10.57,0-20.16,3.73-27.15,9.76C111.17,4.18,101.59,.45,91.01,.45c-21.42,0-38.79,15.28-38.79,34.12,0,.87,.05,1.73,.12,2.59-19.19,2.36-34.06,18.84-34.06,38.84,0,9.8,3.58,18.75,9.48,25.62-13.03,6.31-22.02,19.75-22.02,35.3,0,12.14,5.48,22.99,14.08,30.17C8.25,173.86,.45,186.49,.45,200.97s7.79,27.11,19.37,33.88c-8.6,7.18-14.08,18.03-14.08,30.17,0,15.56,9,28.99,22.02,35.3-5.9,6.87-9.48,15.82-9.48,25.62,0,18.89,13.27,34.66,30.91,38.33,0,.13-.01,.26-.01,.39,0,18.84,17.37,34.12,38.79,34.12,12.2,0,23.08-4.96,30.19-12.71,7.11,7.75,17.99,12.71,30.19,12.71,21.42,0,38.79-15.28,38.79-34.12,0-.13,0-.26-.01-.39,17.64-3.67,30.91-19.44,30.91-38.33,0-9.8-3.58-18.75-9.48-25.62,13.03-6.31,22.02-19.75,22.02-35.3Z"/>
</svg>