<?xml version="1.0" encoding="UTF-8"?>
<svg id="_圖層_1" data-name=" 圖層 1" xmlns="http://www.w3.org/2000/svg" viewBox="0 0 235.93 399.07">
  <defs>
    <style>
      .cls-1 {
        fill: #fff;
      }

      .cls-1, .cls-2 {
        stroke: #000;
        stroke-miterlimit: 10;
        stroke-width: .5px;
      }

      .cls-2 {
        fill: none;
      }
    </style>
  </defs>
  <path class="cls-1" d="M230.38,264.98c0-12.15-5.48-23.01-14.08-30.19,11.58-6.78,19.37-19.41,19.37-33.9s-7.79-27.12-19.37-33.9c8.6-7.18,14.08-18.04,14.08-30.19,0-15.57-9-29.01-22.02-35.33,5.9-6.87,9.48-15.83,9.48-25.63,0-20.01-14.87-36.51-34.06-38.86,.07-.86,.12-1.72,.12-2.59C183.9,15.54,166.54,.25,145.11,.25c-10.57,0-20.16,3.73-27.15,9.77C110.97,3.98,101.39,.25,90.81,.25c-21.42,0-38.79,15.29-38.79,34.14,0,.87,.05,1.73,.12,2.59-19.19,2.36-34.06,18.85-34.06,38.86,0,9.81,3.58,18.76,9.48,25.63-13.03,6.31-22.02,19.76-22.02,35.33,0,12.15,5.48,23.01,14.08,30.19C8.04,173.77,.25,186.4,.25,200.89s7.79,27.12,19.37,33.9c-8.6,7.18-14.08,18.04-14.08,30.19,0,15.57,9,29.01,22.02,35.33-5.9,6.87-9.48,15.83-9.48,25.63,0,18.9,13.27,34.68,30.91,38.35,0,.13-.01,.26-.01,.39,0,18.86,17.37,34.14,38.79,34.14,12.2,0,23.08-4.96,30.19-12.71,7.11,7.75,17.99,12.71,30.19,12.71,21.42,0,38.79-15.29,38.79-34.14,0-.13,0-.26-.01-.39,17.64-3.68,30.91-19.45,30.91-38.35,0-9.81-3.58-18.76-9.48-25.63,13.03-6.31,22.02-19.76,22.02-35.33Zm-166.69,61.1h-15.9v-23.22c0-3.63,3.56-6.57,7.95-6.57h0c4.39,0,7.95,2.94,7.95,6.57v23.22Zm8.42-61.2h-22.92v-33.47c0-5.23,5.13-9.46,11.46-9.46s11.46,4.24,11.46,9.46v33.47Zm17.58-60.08c0-2.61,2.56-4.73,5.73-4.73s5.73,2.12,5.73,4.73v16.74h-11.46v-16.74Zm14.65,98.63h-11.46v-16.74c0-2.61,2.56-4.73,5.73-4.73s5.73,2.12,5.73,4.73v16.74Zm29.65-41.43h-11.46v-16.74c0-2.61,2.56-4.73,5.73-4.73s5.73,2.12,5.73,4.73v16.74Zm4.52-68.03c0-5.23,5.13-9.46,11.46-9.46s11.46,4.24,11.46,9.46v33.47h-22.92v-33.47Zm31.47,118.16h-22.92v-33.47c0-5.23,5.13-9.46,11.46-9.46s11.46,4.24,11.46,9.46v33.47Zm33.99-38.15h-15.9v-23.22c0-3.63,3.56-6.57,7.95-6.57s7.95,2.94,7.95,6.57v23.22Z"/>
  <path class="cls-2" d="M230.38,264.98c0-12.15-5.48-23.01-14.08-30.19,11.58-6.78,19.37-19.41,19.37-33.9s-7.79-27.12-19.37-33.9c8.6-7.18,14.08-18.04,14.08-30.19,0-15.57-9-29.01-22.02-35.33,5.9-6.87,9.48-15.83,9.48-25.63,0-20.01-14.87-36.51-34.06-38.86,.07-.86,.12-1.72,.12-2.59C183.9,15.54,166.54,.25,145.11,.25c-10.57,0-20.16,3.73-27.15,9.77C110.97,3.98,101.39,.25,90.81,.25c-21.42,0-38.79,15.29-38.79,34.14,0,.87,.05,1.73,.12,2.59-19.19,2.36-34.06,18.85-34.06,38.86,0,9.81,3.58,18.76,9.48,25.63-13.03,6.31-22.02,19.76-22.02,35.33,0,12.15,5.48,23.01,14.08,30.19C8.04,173.77,.25,186.4,.25,200.89s7.79,27.12,19.37,33.9c-8.6,7.18-14.08,18.04-14.08,30.19,0,15.57,9,29.01,22.02,35.33-5.9,6.87-9.48,15.83-9.48,25.63,0,18.9,13.27,34.68,30.91,38.35,0,.13-.01,.26-.01,.39,0,18.86,17.37,34.14,38.79,34.14,12.2,0,23.08-4.96,30.19-12.71,7.11,7.75,17.99,12.71,30.19,12.71,21.42,0,38.79-15.29,38.79-34.14,0-.13,0-.26-.01-.39,17.64-3.68,30.91-19.45,30.91-38.35,0-9.81-3.58-18.76-9.48-25.63,13.03-6.31,22.02-19.76,22.02-35.33Z"/>
</svg>