<?xml version="1.0" encoding="UTF-8"?>
<svg id="_圖層_1" data-name="圖層 1" xmlns="http://www.w3.org/2000/svg" viewBox="0 0 236.33 398.32">
  <defs>
    <style>
      .cls-1 {
        fill: #fff;
        stroke: #231815;
        stroke-miterlimit: 10;
        stroke-width: .91px;
      }
    </style>
  </defs>
  <path class="cls-1" d="M230.59,264.41c0-12.11-5.48-22.94-14.08-30.1,11.58-6.76,19.37-19.36,19.37-33.8s-7.79-27.04-19.37-33.8c8.6-7.16,14.08-17.99,14.08-30.1,0-15.52-9-28.93-22.02-35.22,5.9-6.85,9.48-15.78,9.48-25.56,0-19.95-14.87-36.4-34.06-38.75,.07-.85,.12-1.71,.12-2.58C184.11,15.69,166.74,.45,145.32,.45c-10.57,0-20.16,3.72-27.15,9.74C111.17,4.17,101.59,.45,91.01,.45c-21.42,0-38.79,15.24-38.79,34.04,0,.87,.05,1.73,.12,2.58-19.19,2.35-34.06,18.8-34.06,38.75,0,9.78,3.58,18.71,9.48,25.56-13.03,6.3-22.02,19.7-22.02,35.22,0,12.11,5.48,22.94,14.08,30.1C8.25,173.47,.45,186.07,.45,200.51s7.79,27.04,19.37,33.8c-8.6,7.16-14.08,17.99-14.08,30.1,0,15.52,9,28.93,22.02,35.22-5.9,6.85-9.48,15.78-9.48,25.56,0,18.85,13.27,34.58,30.91,38.24,0,.13-.01,.26-.01,.39,0,18.8,17.37,34.04,38.79,34.04,12.2,0,23.08-4.95,30.19-12.68,7.11,7.73,17.99,12.68,30.19,12.68,21.42,0,38.79-15.24,38.79-34.04,0-.13,0-.26-.01-.39,17.64-3.67,30.91-19.39,30.91-38.24,0-9.78-3.58-18.71-9.48-25.56,13.03-6.3,22.02-19.7,22.02-35.22Z"/>
</svg>