<?xml version="1.0" encoding="UTF-8"?>
<svg id="_圖層_1" data-name="圖層 1" xmlns="http://www.w3.org/2000/svg" viewBox="0 0 61.43 48.78">
  <defs>
    <style>
      .cls-1 {
        fill: #00f5ff;
      }

      .cls-2 {
        fill: #fff;
      }

      .cls-3 {
        fill: #3d3d3d;
      }
    </style>
  </defs>
  <g>
    <path class="cls-2" d="M14.92,16.11c-2.29-.6-3.45-.28-5.78-.11s-4.71,1.19-6.38,3.43c-1.17,1.57-1.95,3.7-2.19,5.93-.12,1.09-.1,2.26,.29,3.22,.43,1.06,1.26,1.69,2.08,2.14,1.49,.82,3.09,1.23,4.69,1.19-.58,2.38,.71,4.84,2.14,6.4,3.43,3.75,8.15,5.11,12.38,3.57,3.55,4.48,8.54,6.15,13.34,6.38,2.31,.11,4.82-.16,6.6-2.21,1.5-1.73,2.22-4.4,2.87-6.95,2.77,1.57,5.81,3.16,8.67,1.98,2.14-.89,3.81-3.19,5.21-5.59,1.12-1.91,2.19-4.12,2.2-6.58,.01-3.63-2.27-6.5-4.62-8.1-2-1.35-4.19-2.16-6.41-2.37,.63-1.41,.42-3.33-.24-4.71s-1.7-2.35-2.74-3.17c-2.69-2.1-5.7-3.54-8.79-3.56-3.09-.02-6.24,1.49-8.37,4.58-.05-.7-.45-1.25-.84-1.69-2.33-2.63-5.58-3.78-8.47-2.64s-5.28,4.71-5.62,8.85Z"/>
    <path class="cls-3" d="M15.04,15.68c-2.52-.61-5.62-.49-8.11,.29-2.61,.81-4.59,2.75-5.7,5.22-1.01,2.25-1.85,5.63-.6,7.95s4.54,3.21,6.99,3.21l-.42-.56c-.69,3.43,1.5,6.52,4.1,8.52s6.06,3.07,9.39,2.41c.31-.06,.94-.39,1.22-.31,.34,.09,.64,.62,.86,.85,.61,.65,1.27,1.24,1.98,1.78,1.36,1.04,2.88,1.85,4.49,2.44,2.96,1.09,6.75,1.75,9.86,.9,4.16-1.14,5.33-5.47,6.28-9.17l-.64,.26c3.16,1.78,6.97,3.66,10.34,1.29,2.67-1.88,4.71-5.41,5.78-8.44,2.6-7.38-3.85-13.55-10.84-14.33l.42,.56c2.07-5.27-3.71-9.49-7.93-11.13-4.92-1.92-9.98-.32-13.03,3.94l.8,.1c-.34-1.93-2.4-3.48-4.07-4.28s-3.77-1.08-5.62-.41c-3.78,1.36-5.74,5.58-6.11,9.33-.06,.56,.82,.56,.88,0,.32-3.22,1.91-6.82,4.99-8.28,1.53-.73,3.29-.72,4.86-.12,1.65,.63,3.9,2.15,4.22,4,.07,.41,.61,.38,.8,.1,2.73-3.81,7.22-5.26,11.65-3.68,3.93,1.4,9.62,5.31,7.7,10.2-.12,.29,.17,.53,.42,.56,6.47,.71,12.38,6.41,9.99,13.21-.94,2.68-2.72,5.68-4.89,7.53-3.15,2.69-6.84,.85-9.94-.9-.24-.14-.57-.02-.64,.26-.62,2.4-1.21,5.24-3.03,7.05s-4.34,1.93-6.72,1.74c-4.83-.38-9.25-2.41-12.33-6.21-.09-.11-.29-.16-.43-.11-2.98,1.03-6.13,.67-8.85-.92-2.87-1.68-5.84-4.91-5.13-8.5,.06-.28-.12-.55-.42-.56-2.4,0-5.83-.92-6.53-3.57-.61-2.32,.25-5.29,1.42-7.31s3.07-3.45,5.34-3.96,4.75-.63,6.95-.1c.55,.13,.78-.71,.23-.85Z"/>
  </g>
  <g>
    <path class="cls-1" d="M14.92,9.72c-2.29-.6-3.45-.28-5.78-.11s-4.71,1.19-6.38,3.43c-1.17,1.57-1.95,3.7-2.19,5.93-.12,1.09-.1,2.26,.29,3.22,.43,1.06,1.26,1.69,2.08,2.14,1.49,.82,3.09,1.23,4.69,1.19-.58,2.38,.71,4.84,2.14,6.4,3.43,3.75,8.15,5.11,12.38,3.57,3.55,4.48,8.54,6.15,13.34,6.38,2.31,.11,4.82-.16,6.6-2.21,1.5-1.73,2.22-4.4,2.87-6.95,2.77,1.57,5.81,3.16,8.67,1.98,2.14-.89,3.81-3.19,5.21-5.59,1.12-1.91,2.19-4.12,2.2-6.58,.01-3.63-2.27-6.5-4.62-8.1-2-1.35-4.19-2.16-6.41-2.37,.63-1.41,.42-3.33-.24-4.71s-1.7-2.35-2.74-3.17c-2.69-2.1-5.7-3.54-8.79-3.56-3.09-.02-6.24,1.49-8.37,4.58-.05-.7-.45-1.25-.84-1.69C26.68,.88,23.44-.27,20.54,.87s-5.28,4.71-5.62,8.85Z"/>
    <path class="cls-3" d="M15.04,9.29c-2.52-.61-5.62-.49-8.11,.29-2.61,.81-4.59,2.75-5.7,5.22-1.01,2.25-1.85,5.63-.6,7.95s4.54,3.21,6.99,3.21l-.42-.56c-.69,3.43,1.5,6.52,4.1,8.52s6.06,3.07,9.39,2.41c.31-.06,.94-.39,1.22-.31,.34,.09,.64,.62,.86,.85,.61,.65,1.27,1.24,1.98,1.78,1.36,1.04,2.88,1.85,4.49,2.44,2.96,1.09,6.75,1.75,9.86,.9,4.16-1.14,5.33-5.47,6.28-9.17l-.64,.26c3.16,1.78,6.97,3.66,10.34,1.29,2.67-1.88,4.71-5.41,5.78-8.44,2.6-7.38-3.85-13.55-10.84-14.33l.42,.56c2.07-5.27-3.71-9.49-7.93-11.13-4.92-1.92-9.98-.32-13.03,3.94l.8,.1c-.34-1.93-2.4-3.48-4.07-4.28s-3.77-1.08-5.62-.41c-3.78,1.36-5.74,5.58-6.11,9.33-.06,.56,.82,.56,.88,0,.32-3.22,1.91-6.82,4.99-8.28,1.53-.73,3.29-.72,4.86-.12,1.65,.63,3.9,2.15,4.22,4,.07,.41,.61,.38,.8,.1,2.73-3.81,7.22-5.26,11.65-3.68,3.93,1.4,9.62,5.31,7.7,10.2-.12,.29,.17,.53,.42,.56,6.47,.71,12.38,6.41,9.99,13.21-.94,2.68-2.72,5.68-4.89,7.53-3.15,2.69-6.84,.85-9.94-.9-.24-.14-.57-.02-.64,.26-.62,2.4-1.21,5.24-3.03,7.05s-4.34,1.93-6.72,1.74c-4.83-.38-9.25-2.41-12.33-6.21-.09-.11-.29-.16-.43-.11-2.98,1.03-6.13,.67-8.85-.92-2.87-1.68-5.84-4.91-5.13-8.5,.06-.28-.12-.55-.42-.56-2.4,0-5.83-.92-6.53-3.57-.61-2.32,.25-5.29,1.42-7.31s3.07-3.45,5.34-3.96,4.75-.63,6.95-.1c.55,.13,.78-.71,.23-.85Z"/>
  </g>
</svg>