<?xml version="1.0" encoding="UTF-8"?>
<svg id="_圖層_1" data-name="圖層 1" xmlns="http://www.w3.org/2000/svg" xmlns:xlink="http://www.w3.org/1999/xlink" viewBox="0 0 433 91.45">
  <defs>
    <style>
      .cls-1 {
        fill: #79a6e8;
      }

      .cls-2 {
        fill: url(#_未命名漸層_164-2);
      }

      .cls-3 {
        fill: url(#_未命名漸層_164-8);
      }

      .cls-4 {
        fill: url(#_未命名漸層_164-3);
      }

      .cls-5 {
        fill: url(#_未命名漸層_164-9);
      }

      .cls-6 {
        fill: url(#_未命名漸層_164-4);
      }

      .cls-7 {
        fill: url(#_未命名漸層_164-6);
      }

      .cls-8 {
        fill: url(#_未命名漸層_164-7);
      }

      .cls-9 {
        fill: url(#_未命名漸層_164-5);
      }

      .cls-10 {
        fill: url(#_未命名漸層_168-6);
      }

      .cls-11 {
        fill: url(#_未命名漸層_168-5);
      }

      .cls-12 {
        fill: url(#_未命名漸層_168-4);
      }

      .cls-13 {
        fill: url(#_未命名漸層_168-3);
      }

      .cls-14 {
        fill: url(#_未命名漸層_168-2);
      }

      .cls-15 {
        fill: url(#_未命名漸層_168-8);
      }

      .cls-16 {
        fill: url(#_未命名漸層_168-7);
      }

      .cls-17 {
        fill: url(#_未命名漸層_164);
      }

      .cls-18 {
        fill: url(#_未命名漸層_168);
      }

      .cls-19 {
        fill: url(#_未命名漸層_164-16);
      }

      .cls-20 {
        fill: url(#_未命名漸層_164-10);
      }

      .cls-21 {
        fill: url(#_未命名漸層_164-18);
      }

      .cls-22 {
        fill: url(#_未命名漸層_164-17);
      }

      .cls-23 {
        fill: url(#_未命名漸層_164-19);
      }

      .cls-24 {
        fill: url(#_未命名漸層_164-14);
      }

      .cls-25 {
        fill: url(#_未命名漸層_164-13);
      }

      .cls-26 {
        fill: url(#_未命名漸層_164-11);
      }

      .cls-27 {
        fill: url(#_未命名漸層_164-12);
      }

      .cls-28 {
        fill: url(#_未命名漸層_164-15);
      }

      .cls-29 {
        fill: url(#_未命名漸層_164-23);
      }

      .cls-30 {
        fill: url(#_未命名漸層_164-22);
      }

      .cls-31 {
        fill: url(#_未命名漸層_164-27);
      }

      .cls-32 {
        fill: url(#_未命名漸層_164-26);
      }

      .cls-33 {
        fill: url(#_未命名漸層_164-25);
      }

      .cls-34 {
        fill: url(#_未命名漸層_164-24);
      }

      .cls-35 {
        fill: url(#_未命名漸層_164-21);
      }

      .cls-36 {
        fill: url(#_未命名漸層_164-20);
      }

      .cls-37 {
        fill: url(#_未命名漸層_164-28);
      }
    </style>
    <linearGradient id="_未命名漸層_164" data-name="未命名漸層 164" x1="361.38" y1="56.27" x2="361.38" y2="25.66" gradientUnits="userSpaceOnUse">
      <stop offset="0" stop-color="#79a6e8"/>
      <stop offset="1" stop-color="#b8effc"/>
    </linearGradient>
    <linearGradient id="_未命名漸層_168" data-name="未命名漸層 168" x1="426.12" y1="85.52" x2="426.12" y2="30.52" gradientUnits="userSpaceOnUse">
      <stop offset=".3" stop-color="#f1916e"/>
      <stop offset=".47" stop-color="#f29472"/>
      <stop offset=".66" stop-color="#f59e80"/>
      <stop offset=".87" stop-color="#faaf98"/>
      <stop offset="1" stop-color="#ffbdab"/>
    </linearGradient>
    <linearGradient id="_未命名漸層_164-2" data-name="未命名漸層 164" x1="518.88" y1="-891.34" x2="552.71" y2="-891.34" gradientTransform="translate(-256.59 944.01)" xlink:href="#_未命名漸層_164"/>
    <linearGradient id="_未命名漸層_164-3" data-name="未命名漸層 164" x1="734.41" y1="-844.1" x2="809.18" y2="-844.1" gradientTransform="translate(-728.59 849.53)" xlink:href="#_未命名漸層_164"/>
    <linearGradient id="_未命名漸層_164-4" data-name="未命名漸層 164" x1="638.68" y1="-880.22" x2="705.49" y2="-880.22" gradientTransform="translate(-529.17 921.77)" xlink:href="#_未命名漸層_164"/>
    <linearGradient id="_未命名漸層_164-5" data-name="未命名漸層 164" x1="5.82" y1="59.59" x2="80.59" y2="59.59" xlink:href="#_未命名漸層_164"/>
    <linearGradient id="_未命名漸層_164-6" data-name="未命名漸層 164" x1="0" y1="87.33" x2="86.41" y2="87.33" xlink:href="#_未命名漸層_164"/>
    <linearGradient id="_未命名漸層_164-7" data-name="未命名漸層 164" x1="734.4" y1="-826.63" x2="756.78" y2="-826.63" gradientTransform="translate(-675.4 873.23)" xlink:href="#_未命名漸層_164"/>
    <linearGradient id="_未命名漸層_164-8" data-name="未命名漸層 164" x1="761.39" y1="-826.63" x2="783.77" y2="-826.63" gradientTransform="translate(-729.37 873.23)" xlink:href="#_未命名漸層_164"/>
    <linearGradient id="_未命名漸層_164-9" data-name="未命名漸層 164" x1="788.38" y1="-826.63" x2="810.76" y2="-826.63" gradientTransform="translate(-783.35 873.23)" xlink:href="#_未命名漸層_164"/>
    <linearGradient id="_未命名漸層_164-10" data-name="未命名漸層 164" x1="43.21" y1="55.81" x2="43.21" y2="82.4" xlink:href="#_未命名漸層_164"/>
    <linearGradient id="_未命名漸層_164-11" data-name="未命名漸層 164" x1="324.68" y1="45.14" x2="324.68" y2="8.85" xlink:href="#_未命名漸層_164"/>
    <linearGradient id="_未命名漸層_164-12" data-name="未命名漸層 164" x1="279.2" y1="58.88" x2="279.2" y2="26.16" xlink:href="#_未命名漸層_164"/>
    <linearGradient id="_未命名漸層_164-13" data-name="未命名漸層 164" x1="393.75" y1="-36.72" x2="393.75" y2="87.36" xlink:href="#_未命名漸層_164"/>
    <linearGradient id="_未命名漸層_164-14" data-name="未命名漸層 164" x1="166.4" y1="2.07" x2="167.01" y2="32.19" xlink:href="#_未命名漸層_164"/>
    <linearGradient id="_未命名漸層_164-15" data-name="未命名漸層 164" x1="5.22" y1="73.94" x2="27.29" y2="73.94" xlink:href="#_未命名漸層_164"/>
    <linearGradient id="_未命名漸層_168-2" data-name="未命名漸層 168" x1="60.49" y1="73.35" x2="80.28" y2="73.35" xlink:href="#_未命名漸層_168"/>
    <linearGradient id="_未命名漸層_168-3" data-name="未命名漸層 168" x1="44.22" y1="27.73" x2="86.08" y2="23.49" xlink:href="#_未命名漸層_168"/>
    <linearGradient id="_未命名漸層_168-4" data-name="未命名漸層 168" x1="2.81" y1="27.91" x2="45.81" y2="23.16" xlink:href="#_未命名漸層_168"/>
    <linearGradient id="_未命名漸層_164-16" data-name="未命名漸層 164" x1="43.21" y1="25.74" x2="84.64" y2="25.74" xlink:href="#_未命名漸層_164"/>
    <linearGradient id="_未命名漸層_164-17" data-name="未命名漸層 164" x1="1.78" y1="25.74" x2="43.21" y2="25.74" xlink:href="#_未命名漸層_164"/>
    <linearGradient id="_未命名漸層_168-5" data-name="未命名漸層 168" x1="123.23" y1="17.86" x2="158.22" y2="17.86" gradientTransform="translate(292.77 35.73) rotate(180)" xlink:href="#_未命名漸層_168"/>
    <linearGradient id="_未命名漸層_164-18" data-name="未命名漸層 164" x1="136.48" y1="81.39" x2="173.57" y2="79.82" xlink:href="#_未命名漸層_164"/>
    <linearGradient id="_未命名漸層_168-6" data-name="未命名漸層 168" x1="336.75" y1="7.13" x2="336.75" y2="35.48" xlink:href="#_未命名漸層_168"/>
    <linearGradient id="_未命名漸層_168-7" data-name="未命名漸層 168" x1="512.77" y1="-905.45" x2="558.82" y2="-905.45" gradientTransform="translate(-256.59 972.24)" xlink:href="#_未命名漸層_168"/>
    <linearGradient id="_未命名漸層_164-19" data-name="未命名漸層 164" x1="279.16" y1="45.71" x2="279.16" y2="27.01" xlink:href="#_未命名漸層_164"/>
    <linearGradient id="_未命名漸層_164-20" data-name="未命名漸層 164" x1="279.16" y1="-3.45" x2="279.16" y2="19.86" xlink:href="#_未命名漸層_164"/>
    <linearGradient id="_未命名漸層_164-21" data-name="未命名漸層 164" x1="258.06" y1="67.05" x2="258.06" y2="90.65" xlink:href="#_未命名漸層_164"/>
    <linearGradient id="_未命名漸層_164-22" data-name="未命名漸層 164" x1="271.41" y1="67.05" x2="271.41" y2="90.65" xlink:href="#_未命名漸層_164"/>
    <linearGradient id="_未命名漸層_164-23" data-name="未命名漸層 164" x1="284.76" y1="67.05" x2="284.76" y2="90.65" xlink:href="#_未命名漸層_164"/>
    <linearGradient id="_未命名漸層_164-24" data-name="未命名漸層 164" x1="324.87" y1="34.02" x2="324.87" y2="89.6" xlink:href="#_未命名漸層_164"/>
    <linearGradient id="_未命名漸層_164-25" data-name="未命名漸層 164" x1="125.11" y1="50.73" x2="125.11" y2="90.14" xlink:href="#_未命名漸層_164"/>
    <linearGradient id="_未命名漸層_164-26" data-name="未命名漸層 164" x1="638.68" y1="-901.69" x2="705.49" y2="-901.69" gradientTransform="translate(-529.17 964.72)" xlink:href="#_未命名漸層_164"/>
    <linearGradient id="_未命名漸層_168-8" data-name="未命名漸層 168" x1="172.34" y1="53.55" x2="172.34" y2="74.11" xlink:href="#_未命名漸層_168"/>
    <linearGradient id="_未命名漸層_164-27" data-name="未命名漸層 164" x1="190.15" y1="46.9" x2="247.06" y2="46.9" xlink:href="#_未命名漸層_164"/>
    <linearGradient id="_未命名漸層_164-28" data-name="未命名漸層 164" x1="870.6" y1="67.05" x2="870.6" y2="90.65" gradientTransform="translate(1170.74) rotate(-180) scale(1 -1)" xlink:href="#_未命名漸層_164"/>
  </defs>
  <g>
    <rect class="cls-1" x="368.25" y="20.33" width="51.11" height="8.16" transform="translate(787.62 48.81) rotate(-180)"/>
    <rect class="cls-1" x="368.25" y="52.95" width="54.68" height="8.16" transform="translate(791.19 114.06) rotate(-180)"/>
    <rect class="cls-17" x="354.5" y="20.33" width="13.76" height="40.78"/>
    <path class="cls-18" d="M419.24,20.33h8.6c2.85,0,5.16,2.31,5.16,5.16V61.11h-13.76V20.33h0Z"/>
  </g>
  <rect class="cls-2" x="262.29" y="48.6" width="33.84" height="8.16" transform="translate(558.41 105.35) rotate(-180)"/>
  <rect class="cls-4" x="5.82" y="1.36" width="74.77" height="8.16" transform="translate(86.41 10.87) rotate(180)"/>
  <rect class="cls-1" x="108.92" y="2.01" width="63.9" height="8.16" transform="translate(281.74 12.17) rotate(180)"/>
  <rect class="cls-6" x="109.51" y="37.47" width="66.81" height="8.16" transform="translate(285.83 83.11) rotate(180)"/>
  <rect class="cls-1" x="108.42" y="25.57" width="64.41" height="8.16" transform="translate(281.24 59.29) rotate(180)"/>
  <rect class="cls-9" x="5.82" y="55.51" width="74.77" height="8.16"/>
  <rect class="cls-7" y="83.25" width="86.41" height="8.16"/>
  <path class="cls-8" d="M59,41.6h22.38v6.25c0,2.07-1.68,3.75-3.75,3.75h-14.89c-2.07,0-3.75-1.68-3.75-3.75v-6.25h0Z" transform="translate(140.39 93.2) rotate(180)"/>
  <path class="cls-3" d="M32.01,41.6h22.38v6.25c0,2.07-1.68,3.75-3.75,3.75h-14.89c-2.07,0-3.75-1.68-3.75-3.75v-6.25h0Z" transform="translate(86.41 93.2) rotate(180)"/>
  <path class="cls-5" d="M5.03,41.6H27.41v6.25c0,2.07-1.68,3.75-3.75,3.75H8.78c-2.07,0-3.75-1.68-3.75-3.75v-6.25h0Z" transform="translate(32.44 93.2) rotate(180)"/>
  <rect class="cls-20" x="36.33" y="63.68" width="13.76" height="19.58"/>
  <rect class="cls-1" x="107.97" y="2.01" width="13.76" height="31.71"/>
  <rect class="cls-26" x="317.8" y="2.54" width="13.76" height="48.33"/>
  <rect class="cls-27" x="272.32" y="20.47" width="13.76" height="43.58"/>
  <rect class="cls-25" x="385.81" width="15.88" height="91.4"/>
  <rect class="cls-24" x="159.84" y="2.01" width="13.76" height="31.71"/>
  <circle class="cls-28" cx="16.26" cy="73.94" r="11.03"/>
  <path class="cls-14" d="M80.28,83.23c0-10.93-8.86-19.79-19.79-19.79v19.82l19.79-.03Z"/>
  <g>
    <rect class="cls-13" x="43.21" y="13.19" width="41.43" height="25.1"/>
    <rect class="cls-12" x="1.78" y="13.19" width="41.43" height="25.1"/>
    <polyline class="cls-19" points="84.64 38.28 43.21 38.28 43.21 13.19"/>
    <polyline class="cls-22" points="43.21 38.28 1.78 38.28 1.78 13.19"/>
  </g>
  <rect class="cls-11" x="126.61" y="13.79" width="39.55" height="8.16" rx="1.53" ry="1.53" transform="translate(292.77 35.73) rotate(-180)"/>
  <rect class="cls-1" x="116.61" y="48.21" width="39.55" height="8.16" rx="1.53" ry="1.53" transform="translate(272.77 104.58) rotate(-180)"/>
  <polygon class="cls-21" points="185.61 91.45 185.58 77.36 157.11 68.37 157.11 68.95 157.11 68.37 121.95 79.45 128.87 91.42 157.15 82.66 185.61 91.45"/>
  <circle class="cls-10" cx="336.75" cy="28.92" r="8.59"/>
  <rect class="cls-16" x="256.18" y="62.71" width="46.05" height="8.16" transform="translate(558.41 133.58) rotate(180)"/>
  <polyline class="cls-23" points="302.12 41.22 256.2 41.22 256.2 2.02"/>
  <polyline class="cls-36" points="256.2 2.02 302.12 2.02 302.12 41.22"/>
  <polyline class="cls-1" points="279.16 21.63 302.12 2.02 302.12 41.22"/>
  <polyline class="cls-1" points="279.12 21.63 256.16 2.02 256.16 41.22"/>
  <polygon class="cls-35" points="265.04 74.03 261.33 91.42 251.07 91.42 254.78 74.03 265.04 74.03"/>
  <polygon class="cls-30" points="278.4 74.03 274.69 91.42 264.42 91.42 268.13 74.03 278.4 74.03"/>
  <polygon class="cls-29" points="291.75 74.03 288.04 91.42 277.78 91.42 281.49 74.03 291.75 74.03"/>
  <rect class="cls-34" x="305.19" y="50.47" width="39.36" height="40.94"/>
  <polygon class="cls-33" points="128.87 91.42 115.11 91.42 121.36 62.4 135.12 62.4 128.87 91.42"/>
  <rect class="cls-32" x="109.51" y="58.95" width="66.81" height="8.16" transform="translate(285.83 126.05) rotate(180)"/>
  <polygon class="cls-1" points="106.71 91.4 92.95 91.4 104.57 37.46 118.33 37.46 106.71 91.4"/>
  <circle class="cls-15" cx="172.34" cy="69.35" r="6.23"/>
  <path class="cls-31" d="M215.47,38.13c.51,.07,.94,.11,1.29,.11h.9c2.35,0,4.25-.77,5.71-2.32,1.46-1.55,2.19-3.56,2.19-6.02s-.68-4.33-2.05-5.81c-1.36-1.48-3.13-2.22-5.28-2.22-2.28,0-4.12,.85-5.52,2.54-1.4,1.69-2.09,3.87-2.09,6.55h-17.22c.44-4.15,1.38-7.85,2.81-11.09,1.43-3.24,3.25-5.97,5.47-8.19,2.22-2.22,4.82-3.91,7.8-5.07,2.98-1.16,6.28-1.74,9.9-1.74s6.77,.55,9.66,1.64c2.89,1.09,5.36,2.64,7.42,4.65,2.06,2.01,3.65,4.44,4.76,7.29,1.11,2.85,1.66,6.04,1.66,9.56,0,3.8-.65,6.92-1.95,9.35-1.3,2.43-3.16,4.53-5.57,6.28,3.68,1.27,6.55,3.54,8.61,6.81,2.06,3.27,3.09,7.31,3.09,12.09,0,3.95-.7,7.54-2.09,10.77-1.4,3.24-3.35,6.02-5.85,8.34-2.51,2.32-5.49,4.12-8.95,5.39-3.46,1.27-7.25,1.9-11.37,1.9-5.52,0-10.5-1.2-14.94-3.59-4.44-2.39-7.99-6.2-10.66-11.41-1.21-2.32-2.01-4.65-2.43-6.97-.41-2.32-.62-4.68-.62-7.08h18.46c.13,3.73,1.11,6.57,2.95,8.5,1.84,1.94,4.31,2.9,7.42,2.9,3.3,0,5.71-.99,7.23-2.96,1.52-1.97,2.28-4.4,2.28-7.29,0-3.45-.92-6.06-2.76-7.82-1.84-1.76-4.03-2.64-6.57-2.64-.63,0-3.01,.39-3.71,.53v-12.99Z"/>
  <polygon class="cls-37" points="293.15 74.03 296.86 91.42 307.13 91.42 303.41 74.03 293.15 74.03"/>
</svg>