<?xml version="1.0" encoding="UTF-8"?>
<svg id="_圖層_1" data-name="圖層 1" xmlns="http://www.w3.org/2000/svg" viewBox="0 0 135.82 135.82">
  <defs>
    <style>
      .cls-1 {
        fill: #fff;
        stroke-width: 2px;
      }

      .cls-1, .cls-2 {
        stroke: #ff621d;
        stroke-miterlimit: 10;
      }

      .cls-2 {
        fill: #ff621d;
        stroke-width: .5px;
      }
    </style>
  </defs>
  <circle class="cls-1" cx="67.91" cy="67.91" r="66.91"/>
  <g>
    <path class="cls-2" d="M74.48,10.62c-.52-1.09-1.17-2.13-2.6-2.23-1.15-.08-1.98,.69-2.04,1.62-.1,1.48,1.04,1.89,2.04,2.15,1.11,.23,1.87,.58,2.29,1.01,.43,.43,.62,.9,.59,1.37-.1,1.43-1.33,2.47-2.92,2.36-.59-.04-1.32-.32-2.18-.82l-.36,.32h-.11s-.68-2.1-.68-2.1l.29,.02c.75,1.1,1.75,2.13,3.07,2.22,1.18,.08,2.2-.72,2.27-1.76,.04-.54-.27-1.51-2.3-1.96-1.14-.27-1.88-.65-2.22-1.15-.3-.45-.43-.94-.39-1.49,.09-1.37,1.36-2.24,2.68-2.15,.53,.04,1.15,.28,1.88,.73l.35-.25h.11s.55,2.13,.55,2.13l-.31-.02Z"/>
    <path class="cls-2" d="M79.22,18.07c-2.19-.49-3.49-2.63-2.9-5.24,.55-2.44,2.68-4.02,4.87-3.53,2.13,.48,3.32,2.84,2.78,5.25-.59,2.63-2.69,3.98-4.75,3.52Zm-2.24-5.09c-.51,2.25,.34,4.29,2.32,4.74,1.77,.4,3.46-.92,4-3.31,.52-2.32-.41-4.33-2.19-4.73-.88-.2-1.68-.03-2.43,.52-.86,.65-1.43,1.58-1.71,2.79Z"/>
    <path class="cls-2" d="M85.94,17.08c-.45,1.13-.32,2.4,1.33,3.07,.84,.34,2.41,.48,3.26-1.61l1.67-4.15c.26-.63,.03-.9-.12-.96l-.57-.23,.12-.31,2.4,.97-.12,.31-.49-.2c-.27-.11-.62,.03-.84,.58l-1.67,4.15c-.92,2.28-2.62,2.26-4.03,1.7-.83-.33-1.4-.83-1.66-1.5-.22-.53-.15-1.21,.18-2.03l1.8-4.46c.29-.72-.04-.96-.21-1.03l-.57-.23,.12-.31,2.73,1.1-.12,.31-.46-.19c-.42-.17-.74,.03-.95,.56l-1.8,4.46Z"/>
    <path class="cls-2" d="M93.05,22.01c-.29,.49,.08,.8,.34,.96l1.52,.91c1.17,.7,2.08,.6,3.46-.17l.26,.16-2.02,1.46-5.69-3.4,.19-.31,.64,.38c.34,.21,.59,.04,.79-.28l3.39-5.67c.2-.33,.14-.65-.17-.83l-.61-.36,.19-.31,2.69,1.61-.19,.31-.55-.33c-.47-.28-.71-.05-.87,.21l-3.39,5.67Z"/>
    <path class="cls-2" d="M105.98,32.13c-.15,.33-.03,.67,.19,.88l.34,.32-.25,.27-2.23-2.09,.25-.27,.26,.24c.45,.39,.67,.42,.9,.18,.07-.08,.14-.2,.2-.33l.74-1.7-2.71-2.55-1.55,.76c-.2,.09-.34,.19-.43,.29-.24,.26-.13,.52,.17,.82l.38,.36-.25,.27-2.21-2.08,.25-.27c.63,.59,.8,.75,1.78,.31l6.83-3.31,.69,.23-3.35,7.67Zm2.6-7.41l-4.55,2.18,2.52,2.37,2.03-4.55Z"/>
    <path class="cls-2" d="M107.73,34.69c-.22,.18-.57,.16-.77-.07-.23-.27-.1-.58,.08-.74,.3-.25,.57-.13,.72,.05,.23,.27,.19,.57-.03,.76Z"/>
    <path class="cls-2" d="M110.85,39.83l-.19-.29,4.92-7.08-5.9,3.86c-.31,.2-.42,.46-.21,.78l.3,.45-.31,.2-1.41-2.16,.31-.2,.3,.46c.21,.33,.48,.36,.81,.14l5.62-3.67c.34-.22,.38-.45,.18-.76l-.32-.48,.31-.2,1.11,1.7-4.67,6.66,7.99-1.57,1.09,1.67-.31,.2-.31-.47c-.25-.38-.4-.36-.62-.27l-5.76,3.77c-.22,.14-.52,.34-.27,.74l.36,.55-.31,.2-1.58-2.41,.31-.2,.35,.53c.16,.25,.45,.31,.8,.08l6.01-3.93-8.62,1.71Z"/>
    <path class="cls-2" d="M114.85,45.84c-.25,.12-.6,.01-.73-.26-.15-.32,.04-.59,.27-.69,.35-.17,.59,.02,.69,.23,.15,.32,.04,.6-.23,.73Z"/>
    <path class="cls-2" d="M124.47,56.63c.88-.82,1.67-1.76,1.33-3.16-.28-1.12-1.26-1.67-2.17-1.45-1.44,.36-1.49,1.57-1.43,2.6,.12,1.13,.02,1.95-.26,2.48-.28,.54-.66,.87-1.12,.98-1.39,.34-2.75-.51-3.13-2.06-.14-.57-.1-1.35,.12-2.33l-.41-.25-.03-.1,1.79-1.29,.07,.29c-.82,1.05-1.5,2.31-1.18,3.6,.28,1.15,1.36,1.88,2.37,1.63,.53-.13,1.35-.72,1.16-2.79-.09-1.17,.04-1.99,.42-2.46,.33-.42,.76-.7,1.3-.83,1.33-.33,2.55,.61,2.86,1.9,.13,.52,.08,1.18-.12,2.01l.34,.26,.03,.1-1.85,1.17-.07-.3Z"/>
    <path class="cls-2" d="M118.82,63.43c-.2-2.23,1.44-4.12,4.1-4.35,2.49-.22,4.64,1.33,4.84,3.56,.19,2.17-1.69,4.02-4.15,4.24-2.68,.24-4.61-1.35-4.79-3.45Zm4.16-3.68c-2.29,.2-3.98,1.63-3.8,3.65,.16,1.81,1.92,3.02,4.37,2.8,2.36-.21,3.99-1.7,3.83-3.52-.08-.89-.48-1.6-1.23-2.15-.88-.62-1.94-.88-3.17-.77Z"/>
    <path class="cls-2" d="M121.81,69.51c-1.21-.09-2.38,.43-2.51,2.21-.06,.91,.29,2.44,2.53,2.6l4.46,.32c.68,.05,.87-.25,.88-.41l.04-.61,.33,.02-.18,2.58-.33-.02,.04-.53c.02-.29-.22-.58-.81-.62l-4.46-.32c-2.45-.17-2.96-1.8-2.85-3.31,.06-.89,.36-1.58,.91-2.04,.44-.37,1.1-.51,1.98-.45l4.8,.34c.78,.06,.9-.34,.91-.51l.04-.61,.33,.02-.21,2.94-.33-.02,.04-.49c.03-.45-.26-.69-.82-.73l-4.8-.34Z"/>
    <path class="cls-2" d="M119.31,77.8c-.55-.13-.74,.33-.81,.62l-.4,1.73c-.31,1.33,.07,2.17,1.23,3.24l-.07,.3-2.01-1.47,1.49-6.47,.36,.08-.17,.72c-.09,.39,.15,.58,.51,.66l6.44,1.49c.38,.09,.66-.07,.74-.41l.16-.69,.36,.08-.71,3.06-.36-.08,.14-.62c.12-.53-.17-.69-.47-.76l-6.44-1.49Z"/>
    <path class="cls-2" d="M113.65,93.19c-.36-.04-.65,.18-.78,.45l-.2,.43-.33-.16,1.31-2.76,.33,.16-.15,.32c-.23,.54-.2,.77,.1,.91,.1,.05,.23,.07,.38,.09l1.84,.19,1.6-3.35-1.2-1.25c-.15-.16-.28-.26-.41-.32-.32-.15-.54,.03-.73,.41l-.22,.47-.33-.16,1.3-2.74,.33,.16c-.37,.78-.47,.99,.25,1.79l5.24,5.48v.73s-8.33-.84-8.33-.84Zm7.84,.2l-3.47-3.66-1.48,3.12,4.95,.54Z"/>
    <path class="cls-2" d="M111.73,95.65c-.24-.15-.33-.5-.17-.76,.19-.3,.52-.28,.73-.14,.33,.21,.3,.5,.17,.7-.19,.3-.48,.35-.73,.2Z"/>
    <path class="cls-2" d="M107.78,100.19l.22-.27,8.25,2.54-5.48-4.45c-.28-.23-.56-.26-.81,.04l-.34,.42-.28-.23,1.63-2.01,.28,.23-.35,.43c-.25,.3-.2,.57,.11,.82l5.21,4.24c.31,.25,.54,.23,.78-.06l.36-.45,.28,.23-1.28,1.57-7.77-2.42,3.93,7.14-1.26,1.55-.28-.23,.36-.44c.28-.35,.22-.49,.07-.67l-5.35-4.35c-.2-.16-.48-.4-.78-.03l-.42,.51-.28-.23,1.82-2.23,.28,.23-.4,.49c-.19,.23-.16,.52,.17,.79l5.58,4.53-4.25-7.7Z"/>
    <path class="cls-2" d="M103.3,105.81c-.2-.21-.2-.56,.03-.78,.26-.24,.57-.14,.74,.04,.27,.28,.16,.56,0,.73-.26,.24-.56,.22-.76,0Z"/>
    <path class="cls-2" d="M95.96,118.3c1.05,.58,2.19,1.05,3.41,.29,.98-.61,1.2-1.71,.71-2.51-.78-1.27-1.95-.93-2.91-.56-1.03,.46-1.85,.62-2.45,.51-.6-.1-1.03-.36-1.28-.76-.75-1.21-.36-2.78,1-3.62,.5-.31,1.25-.51,2.25-.6l.11-.47,.09-.06,1.78,1.3-.25,.15c-1.25-.46-2.66-.71-3.79-.02-1,.62-1.37,1.87-.82,2.76,.29,.46,1.1,1.07,3.01,.25,1.08-.45,1.91-.57,2.47-.36,.5,.19,.9,.51,1.19,.98,.72,1.16,.2,2.61-.93,3.31-.45,.28-1.1,.44-1.95,.5l-.14,.4-.09,.06-1.69-1.4,.26-.16Z"/>
    <path class="cls-2" d="M87.78,115c2.06-.88,4.36,.1,5.41,2.56,.98,2.3,.16,4.83-1.9,5.7-2.01,.85-4.35-.37-5.31-2.64-1.05-2.48-.14-4.8,1.81-5.62Zm4.79,2.83c-.9-2.12-2.78-3.28-4.65-2.49-1.67,.71-2.28,2.76-1.32,5.02,.93,2.18,2.85,3.28,4.54,2.56,.83-.35,1.38-.96,1.67-1.84,.32-1.03,.24-2.12-.24-3.26Z"/>
    <path class="cls-2" d="M82.87,119.73c-.29-1.18-1.14-2.14-2.87-1.72-.88,.21-2.24,1.02-1.71,3.21l1.05,4.35c.16,.67,.5,.75,.66,.71l.6-.14,.08,.32-2.51,.61-.08-.32,.52-.12c.29-.07,.49-.39,.35-.96l-1.05-4.35c-.58-2.39,.81-3.37,2.29-3.73,.87-.21,1.62-.14,2.22,.25,.49,.31,.82,.89,1.03,1.75l1.13,4.68c.18,.76,.6,.75,.77,.71l.6-.14,.08,.32-2.87,.69-.08-.32,.48-.12c.44-.11,.58-.46,.45-1.01l-1.13-4.68Z"/>
    <path class="cls-2" d="M74.23,119.86c-.05-.56-.54-.61-.84-.58l-1.76,.15c-1.36,.11-2.05,.73-2.71,2.16l-.31,.03,.79-2.36,6.61-.55,.03,.36-.74,.06c-.4,.03-.51,.31-.48,.69l.55,6.59c.03,.39,.26,.61,.62,.58l.71-.06,.03,.36-3.13,.26-.03-.36,.64-.05c.54-.04,.61-.37,.58-.68l-.55-6.59Z"/>
    <path class="cls-2" d="M57.81,119.19c-.07-.35-.37-.56-.67-.6l-.47-.06,.05-.36,3.03,.4-.05,.36-.35-.05c-.59-.05-.79,.05-.84,.38-.01,.1,0,.24,.03,.39l.39,1.81,3.69,.49,.82-1.52c.11-.19,.17-.35,.18-.49,.05-.35-.2-.5-.62-.57l-.52-.07,.05-.36,3.01,.4-.05,.36c-.85-.11-1.09-.14-1.63,.79l-3.61,6.68-.7,.22-1.77-8.19Zm2.22,7.53l2.42-4.43-3.43-.45,1.01,4.88Z"/>
    <path class="cls-2" d="M54.9,118.12c.07-.28,.37-.47,.67-.39,.34,.09,.42,.41,.36,.65-.09,.38-.39,.44-.62,.38-.34-.08-.49-.35-.41-.64Z"/>
    <path class="cls-2" d="M49.38,115.76l.32,.12,.12,8.63,2.55-6.58c.13-.34,.08-.62-.29-.76l-.51-.2,.13-.34,2.41,.94-.13,.34-.52-.2c-.36-.14-.6-.02-.75,.36l-2.43,6.26c-.14,.37-.05,.59,.3,.72l.54,.21-.13,.34-1.89-.73-.08-8.13-5.58,5.93-1.86-.72,.13-.34,.53,.21c.42,.16,.54,.06,.66-.14l2.5-6.42c.09-.24,.23-.58-.21-.75l-.62-.24,.13-.34,2.68,1.04-.13,.34-.59-.23c-.28-.11-.55,0-.7,.4l-2.6,6.7,6.02-6.41Z"/>
    <path class="cls-2" d="M42.66,113.22c.13-.25,.48-.36,.75-.21,.31,.17,.3,.5,.19,.72-.19,.34-.49,.33-.69,.21-.31-.17-.38-.46-.24-.72Z"/>
    <path class="cls-2" d="M28.53,110.03c-.23,1.18-.33,2.4,.76,3.34,.88,.75,2,.62,2.61-.09,.97-1.13,.29-2.14-.35-2.95-.75-.85-1.15-1.58-1.23-2.17-.09-.6,.03-1.09,.34-1.45,.93-1.09,2.54-1.19,3.75-.15,.45,.38,.87,1.04,1.26,1.96l.48-.04,.08,.07-.7,2.09-.22-.19c.06-1.34-.13-2.75-1.14-3.61-.9-.77-2.2-.73-2.88,.06-.35,.41-.68,1.38,.68,2.94,.76,.9,1.12,1.65,1.1,2.24-.02,.54-.21,1.01-.57,1.44-.89,1.04-2.43,.98-3.43,.12-.4-.35-.76-.91-1.07-1.71h-.43s-.08-.08-.08-.08l.82-2.03,.23,.2Z"/>
    <path class="cls-2" d="M29.16,101.22c1.46,1.7,1.24,4.18-.79,5.93-1.9,1.63-4.55,1.63-6.01-.07-1.43-1.65-.97-4.26,.9-5.87,2.04-1.76,4.53-1.6,5.91,0Zm-1.23,5.42c1.74-1.5,2.28-3.65,.95-5.19-1.19-1.38-3.33-1.33-5.18,.28-1.8,1.55-2.25,3.72-1.06,5.1,.59,.68,1.33,1.02,2.26,1.03,1.08-.01,2.09-.41,3.03-1.22Z"/>
    <path class="cls-2" d="M23.17,98.01c1.04-.64,1.69-1.74,.75-3.26-.48-.77-1.66-1.82-3.58-.64l-3.81,2.34c-.58,.36-.56,.71-.48,.85l.32,.52-.28,.17-1.35-2.2,.28-.17,.28,.45c.15,.25,.52,.35,1.02,.04l3.81-2.34c2.09-1.29,3.45-.27,4.25,1.03,.47,.76,.63,1.5,.45,2.19-.14,.56-.6,1.06-1.35,1.52l-4.1,2.52c-.66,.41-.53,.8-.44,.95l.32,.52-.28,.17-1.54-2.51,.28-.17,.26,.42c.24,.38,.61,.41,1.1,.12l4.1-2.52Z"/>
    <path class="cls-2" d="M20.38,89.83c.52-.22,.41-.7,.3-.98l-.68-1.63c-.53-1.26-1.32-1.73-2.88-1.92l-.12-.28,2.49,.02,2.55,6.12-.34,.14-.29-.69c-.15-.37-.46-.39-.8-.24l-6.1,2.54c-.36,.15-.5,.44-.36,.76l.27,.65-.34,.14-1.21-2.9,.34-.14,.25,.59c.21,.5,.54,.47,.82,.35l6.1-2.54Z"/>
    <path class="cls-2" d="M16.01,74c.32-.18,.42-.52,.37-.82l-.08-.46,.36-.06,.54,3.01-.36,.06-.06-.35c-.13-.58-.29-.74-.61-.68-.1,.02-.23,.08-.36,.15l-1.61,.92,.66,3.66,1.7,.32c.21,.05,.38,.05,.52,.03,.35-.06,.42-.34,.35-.76l-.09-.51,.36-.06,.54,2.98-.36,.06c-.15-.85-.19-1.08-1.24-1.31l-7.46-1.4-.42-.6,7.26-4.17Zm-6.5,4.41l4.96,.95-.61-3.4-4.34,2.45Z"/>
    <path class="cls-2" d="M16.14,70.92c.28-.02,.56,.21,.58,.52,.02,.35-.26,.53-.51,.54-.39,.03-.54-.24-.55-.47-.02-.35,.19-.57,.48-.59Z"/>
    <path class="cls-2" d="M16.7,64.93l-.02,.34-8.17,2.76,7.04,.41c.37,.02,.61-.12,.63-.51l.03-.54,.36,.02-.15,2.58-.36-.02,.03-.55c.02-.39-.17-.58-.57-.6l-6.7-.39c-.4-.02-.58,.13-.6,.51l-.03,.58-.37-.02,.12-2.03,7.71-2.58-7.36-3.49,.12-1.99,.37,.02-.03,.57c-.03,.45,.11,.53,.33,.59l6.88,.4c.26,.02,.62,.04,.65-.44l.04-.66,.37,.02-.17,2.87-.37-.02,.04-.64c.02-.29-.17-.52-.59-.54l-7.17-.42,7.95,3.76Z"/>
    <path class="cls-2" d="M17.05,57.73c.28,.05,.49,.34,.43,.65-.07,.35-.38,.44-.63,.4-.38-.07-.46-.36-.42-.59,.07-.35,.32-.5,.61-.45Z"/>
    <path class="cls-2" d="M15.76,43.31c-1.2,.14-2.39,.42-2.95,1.75-.45,1.07,.02,2.09,.88,2.45,1.37,.57,2.13-.37,2.69-1.24,.57-.97,1.15-1.58,1.69-1.84,.55-.27,1.05-.3,1.48-.12,1.32,.55,1.9,2.05,1.29,3.52-.23,.54-.72,1.14-1.48,1.8l.18,.45-.04,.1-2.2-.03,.11-.27c1.29-.36,2.58-.96,3.09-2.18,.46-1.09,.03-2.32-.93-2.72-.5-.21-1.52-.23-2.59,1.55-.62,.99-1.22,1.57-1.8,1.73-.52,.14-1.03,.11-1.54-.11-1.26-.53-1.68-2.01-1.17-3.23,.21-.49,.64-1,1.3-1.54l-.12-.41,.04-.1,2.18,.16-.12,.28Z"/>
    <path class="cls-2" d="M24.33,41.22c-1.17,1.91-3.61,2.46-5.89,1.06-2.13-1.31-2.94-3.84-1.77-5.75,1.14-1.86,3.76-2.23,5.86-.94,2.3,1.41,2.9,3.83,1.8,5.63Zm-5.54,.48c1.96,1.2,4.17,1.06,5.23-.67,.95-1.55,.25-3.57-1.85-4.85-2.02-1.24-4.23-1.01-5.18,.55-.47,.77-.56,1.58-.29,2.47,.34,1.03,1.03,1.86,2.09,2.51Z"/>
    <path class="cls-2" d="M25.55,34.55c.92,.79,2.17,1.07,3.33-.28,.59-.69,1.23-2.13-.48-3.6l-3.39-2.91c-.52-.45-.84-.32-.95-.2l-.4,.47-.25-.22,1.68-1.96,.25,.22-.35,.4c-.19,.22-.17,.6,.27,.98l3.39,2.92c1.86,1.6,1.3,3.21,.31,4.36-.58,.68-1.23,1.05-1.95,1.09-.57,.04-1.19-.25-1.86-.82l-3.65-3.14c-.59-.51-.92-.27-1.04-.13l-.4,.46-.25-.22,1.92-2.24,.25,.22-.32,.38c-.29,.34-.21,.71,.22,1.08l3.65,3.14Z"/>
    <path class="cls-2" d="M32.5,29.38c.37,.43,.79,.18,1.02-.02l1.35-1.15c1.04-.89,1.24-1.79,.94-3.33l.23-.2,.74,2.38-5.04,4.31-.24-.28,.57-.48c.3-.26,.23-.55-.02-.84l-4.29-5.02c-.25-.3-.57-.34-.84-.11l-.54,.46-.24-.28,2.39-2.04,.24,.28-.49,.41c-.41,.35-.28,.66-.08,.89l4.29,5.02Z"/>
    <path class="cls-2" d="M46.22,20.36c.27,.25,.62,.24,.9,.1l.42-.22,.17,.32-2.7,1.44-.17-.32,.31-.17c.51-.3,.61-.5,.46-.79-.05-.09-.14-.19-.25-.29l-1.38-1.25-3.28,1.75,.22,1.72c.02,.22,.07,.38,.13,.5,.17,.31,.45,.29,.83,.1l.46-.25,.17,.32-2.67,1.43-.17-.32c.76-.41,.97-.52,.86-1.59l-.96-7.53,.44-.58,6.21,5.62Zm-6.2-4.82l.62,5.01,3.05-1.63-3.67-3.38Z"/>
    <path class="cls-2" d="M49.21,19.53c.1,.26-.03,.6-.31,.71-.33,.13-.58-.09-.67-.32-.14-.36,.06-.58,.28-.67,.33-.13,.6,0,.71,.28Z"/>
    <path class="cls-2" d="M55.08,18.23l-.33,.08-5.12-6.95,1.75,6.83c.09,.35,.3,.54,.67,.45l.53-.13,.09,.35-2.5,.64-.09-.35,.54-.14c.38-.1,.5-.33,.4-.72l-1.67-6.5c-.1-.39-.3-.51-.67-.41l-.56,.14-.09-.35,1.96-.5,4.8,6.56,1.09-8.07,1.93-.5,.09,.35-.55,.14c-.43,.11-.47,.27-.46,.49l1.71,6.67c.06,.25,.16,.61,.61,.49l.64-.16,.09,.35-2.79,.71-.09-.35,.62-.16c.29-.07,.44-.32,.34-.73l-1.78-6.96-1.16,8.71Z"/>
    <path class="cls-2" d="M62.04,16.39c.03,.28-.18,.57-.49,.61-.35,.04-.54-.23-.57-.48-.05-.39,.21-.55,.44-.58,.35-.04,.58,.16,.61,.45Z"/>
  </g>
</svg>