<svg width="31" height="45" viewBox="0 0 31 45" fill="none" xmlns="http://www.w3.org/2000/svg">
<path d="M0.100012 33.9C0.100012 33.9 -0.849993 25.19 5.47001 16.23C11.8 7.27 22.63 -1.57 27.49 0.919999C32.34 3.41 27.23 9.14 26.07 9.98C24.91 10.82 17.95 16.74 17.95 16.74C17.95 16.74 26.29 9.07 29.01 11.36C31.4 13.38 30.78 16.53 21.55 23.01C21.55 23.01 25.38 20.31 27.5 21.05C29.62 21.79 31.95 27.13 17.92 31.84C9.72001 34.59 6.84001 39.39 5.87001 42.9C5.48001 44.3 3.59001 44.5 2.92001 43.21C1.69001 40.83 0.410012 37.57 0.100012 33.89V33.9Z" fill="#E5E5E5"/>
</svg>
