<svg width="31" height="45" viewBox="0 0 31 45" fill="none" xmlns="http://www.w3.org/2000/svg">
<path d="M0.26 34.06C0.26 34.06 -0.690005 25.35 5.63 16.39C11.96 7.43 22.79 -1.41 27.65 1.08C32.5 3.57 27.39 9.3 26.23 10.14C25.07 10.98 18.11 16.9 18.11 16.9C18.11 16.9 26.45 9.23 29.17 11.52C31.56 13.54 30.94 16.69 21.71 23.17C21.71 23.17 25.54 20.47 27.66 21.21C29.78 21.95 32.11 27.29 18.08 32C9.88 34.75 7 39.55 6.03 43.06C5.64 44.46 3.75 44.66 3.08 43.37C1.85 40.99 0.57 37.73 0.26 34.05V34.06Z" fill="#64D7FF"/>
</svg>
