<svg width="33" height="44" viewBox="0 0 33 44" fill="none" xmlns="http://www.w3.org/2000/svg">
<path d="M30.38 0.949997C27.64 -0.870003 23.05 0.749996 18.17 4.75C18.81 5.93 19.27 7.7 19.37 9.7C19.56 13.35 18.48 16.38 16.97 16.46C15.46 16.54 14.08 13.64 13.9 9.98C13.88 9.58 13.88 9.19 13.88 8.81C13.45 9.27 13.02 9.75 12.59 10.25C13.16 11.43 13.57 13.09 13.67 14.96C13.86 18.61 12.78 21.64 11.27 21.72C9.85999 21.79 8.56 19.26 8.25 15.95C8.16 16.08 8.07999 16.21 7.98999 16.34C7.76999 16.66 7.55999 16.99 7.35999 17.31C7.83999 18.45 8.17001 19.96 8.26001 21.62C8.45001 25.27 7.36999 28.3 5.85999 28.38C4.79999 28.43 3.81 27.02 3.25 24.92C-0.479999 33.32 -0.989989 40.61 2.51001 42.94C7.18001 46.04 17.21 39.16 24.9 27.57C32.6 15.98 35.05 4.07 30.38 0.969996V0.949997Z" fill="#E5E5E5"/>
<path d="M13.66 14.96C13.56 13.09 13.16 11.43 12.58 10.25C11.09 11.97 9.62999 13.88 8.23999 15.94C8.54999 19.26 9.85001 21.79 11.26 21.71C12.77 21.63 13.84 18.61 13.66 14.95V14.96Z" fill="#FAFAFA"/>
<path d="M8.25 21.61C8.16 19.94 7.83001 18.44 7.35001 17.3C5.71001 19.86 4.33999 22.43 3.23999 24.91C3.79999 27.02 4.80001 28.43 5.85001 28.37C7.36001 28.29 8.43 25.27 8.25 21.61Z" fill="#FAFAFA"/>
<path d="M13.89 9.98C14.08 13.63 15.45 16.53 16.96 16.46C18.47 16.38 19.54 13.36 19.36 9.7C19.26 7.7 18.8 5.94 18.16 4.75C16.74 5.91 15.3 7.27 13.87 8.81" fill="#FAFAFA"/>
</svg>
