<svg width="33" height="44" viewBox="0 0 33 44" fill="none" xmlns="http://www.w3.org/2000/svg">
<path d="M30.54 1.11C27.8 -0.709999 23.21 0.91 18.33 4.91C18.97 6.09 19.43 7.86 19.53 9.86C19.72 13.51 18.64 16.54 17.13 16.62C15.62 16.7 14.24 13.8 14.06 10.14C14.04 9.74 14.04 9.35 14.04 8.97C13.61 9.43 13.18 9.91 12.75 10.41C13.32 11.59 13.73 13.25 13.83 15.12C14.02 18.77 12.94 21.8 11.43 21.88C10.02 21.95 8.72 19.42 8.41 16.11C8.32 16.24 8.24 16.37 8.15 16.5C7.93 16.82 7.71999 17.15 7.51999 17.47C7.99999 18.61 8.33001 20.12 8.42001 21.78C8.61001 25.43 7.52999 28.46 6.01999 28.54C4.95999 28.59 3.97001 27.18 3.41001 25.08C-0.319995 33.48 -0.829985 40.77 2.67001 43.1C7.34001 46.2 17.37 39.32 25.06 27.73C32.76 16.14 35.21 4.23 30.54 1.13V1.11Z" fill="#CB7F36"/>
<path d="M13.82 15.12C13.72 13.25 13.32 11.59 12.74 10.41C11.25 12.13 9.78999 14.04 8.39999 16.1C8.70999 19.42 10.01 21.95 11.42 21.87C12.93 21.79 14 18.77 13.82 15.11V15.12Z" fill="#FFB171"/>
<path d="M8.41 21.77C8.32 20.1 7.99001 18.6 7.51001 17.46C5.87001 20.02 4.49999 22.59 3.39999 25.07C3.95999 27.18 4.96001 28.59 6.01001 28.53C7.52001 28.45 8.59 25.43 8.41 21.77Z" fill="#FFB171"/>
<path d="M14.05 10.14C14.24 13.79 15.61 16.69 17.12 16.62C18.63 16.54 19.7 13.52 19.52 9.86C19.42 7.86 18.96 6.1 18.32 4.91C16.9 6.07 15.46 7.43 14.03 8.97" fill="#FFB171"/>
</svg>
