<svg width="32" height="43" viewBox="0 0 32 43" fill="none" xmlns="http://www.w3.org/2000/svg">
<path d="M31.39 29.57C31.38 29.29 31.36 29.02 31.33 28.74C31.25 28.05 31.08 27.38 30.86 26.74C29.83 21.84 27.27 12.2 22.23 6.51C22.72 5.94 22.97 4.99 22.85 3.96C22.66 2.38 21.65 1.21 20.6 1.34C19.7 1.45 19.06 2.48 19.02 3.77C18.04 3.38 16.21 3.01 12.85 3.2C12.85 3.2 12.85 3.2 12.84 3.2C12.84 3.2 12.84 3.2 12.82 3.2C9.44001 3.84 7.75999 4.66 6.91999 5.28C6.56999 4.03 5.70001 3.16 4.79001 3.27C3.74001 3.4 3.05 4.78 3.24 6.36C3.37 7.42 3.87 8.29 4.49 8.71C0.929996 15.57 0.840015 25.76 1.04001 30.66C1.00001 31.25 1.02 31.85 1.09 32.45C1.11 32.63 1.13999 32.81 1.16999 32.99C1.19999 33.31 1.21 33.49 1.21 33.49L1.28 33.53C2.72001 39.56 9.76999 43.56 17.64 42.6C17.64 42.6 17.66 42.6 17.67 42.6C25.57 41.63 31.46 36.02 31.38 29.81L31.41 29.79C31.41 29.79 31.4 29.72 31.38 29.58L31.39 29.57Z" fill="#E5E5E5"/>
<path d="M12.9942 4.40952C14.5126 4.22308 15.6333 3.1743 15.4974 2.067C15.3614 0.959704 14.0203 0.213197 12.5018 0.399636C10.9834 0.586076 9.86272 1.63486 9.99868 2.74216C10.1346 3.84946 11.4758 4.59596 12.9942 4.40952Z" fill="#E5E5E5"/>
<path d="M12.5727 0.949764C12.7427 0.928899 12.8695 0.823108 12.8561 0.713474C12.8426 0.603841 12.6939 0.531879 12.524 0.552744C12.3541 0.573609 12.2272 0.679399 12.2407 0.789033C12.2541 0.898666 12.4028 0.970629 12.5727 0.949764Z" fill="#E5E5E5"/>
</svg>
