<svg width="31" height="43" viewBox="0 0 31 43" fill="none" xmlns="http://www.w3.org/2000/svg">
<path d="M30.55 29.73C30.54 29.45 30.52 29.18 30.49 28.9C30.41 28.21 30.24 27.54 30.02 26.9C28.99 22 26.43 12.36 21.39 6.67001C21.88 6.10001 22.13 5.15001 22.01 4.12001C21.82 2.54001 20.81 1.37001 19.76 1.50001C18.86 1.61001 18.22 2.64001 18.18 3.93001C17.2 3.54001 15.37 3.17001 12.01 3.36001C12.01 3.36001 12.01 3.36001 12 3.36001C12 3.36001 12 3.36001 11.98 3.36001C8.60002 4.00001 6.91999 4.82001 6.07999 5.44001C5.72999 4.19001 4.86002 3.32001 3.95002 3.43001C2.90002 3.56001 2.21 4.94001 2.4 6.52001C2.53 7.58001 3.03 8.45001 3.65 8.87001C0.0900002 15.73 1.84141e-05 25.92 0.200018 30.82C0.160018 31.41 0.180006 32.01 0.250006 32.61C0.270006 32.79 0.299993 32.97 0.329993 33.15C0.359993 33.47 0.370001 33.65 0.370001 33.65L0.440009 33.69C1.88001 39.72 8.92999 43.72 16.8 42.76C16.8 42.76 16.82 42.76 16.83 42.76C24.73 41.79 30.62 36.18 30.54 29.97L30.57 29.95C30.57 29.95 30.56 29.88 30.54 29.74L30.55 29.73Z" fill="#827A7A"/>
<path d="M12.1542 4.56953C13.6726 4.38309 14.7933 3.33431 14.6574 2.22701C14.5214 1.11971 13.1803 0.373201 11.6618 0.55964C10.1434 0.746079 9.02272 1.79486 9.15868 2.90216C9.29464 4.00946 10.6358 4.75597 12.1542 4.56953Z" fill="#FF8E1F"/>
<path d="M11.7328 1.10977C11.9027 1.0889 12.0296 0.983112 12.0161 0.873478C12.0026 0.763844 11.854 0.691882 11.684 0.712747C11.5141 0.733612 11.3873 0.839403 11.4007 0.949036C11.4142 1.05867 11.5628 1.13063 11.7328 1.10977Z" fill="#1E6434"/>
</svg>
