<svg width="44" height="43" viewBox="0 0 44 43" fill="none" xmlns="http://www.w3.org/2000/svg">
<path d="M40.11 19.48C40.42 17.84 41.22 13.69 41.68 11.42C42.73 6.23999 41.16 6.79999 41.16 6.79999C37.76 7.72999 33.1 10.87 30.93 12.41C29.11 11.6 27.15 10.95 25.06 10.51C22.97 10.07 20.93 9.89999 18.94 9.90999C17.58 7.62999 14.56 2.86 11.82 0.629995C11.82 0.629995 10.61 -0.520007 9.48997 4.64999C8.99997 6.92999 8.04998 11.07 7.67998 12.69C7.51998 12.78 7.33999 12.86 7.18999 12.95C3.73999 15.03 1.29998 18.06 0.529982 21.76C-1.29002 30.43 6.73999 39.46 18.48 41.93C30.21 44.39 41.2 39.36 43.02 30.68C43.83 26.81 42.68 22.87 40.12 19.48H40.11Z" fill="#E5E5E5"/>
</svg>
