<svg width="44" height="43" viewBox="0 0 44 43" fill="none" xmlns="http://www.w3.org/2000/svg">
<path d="M40.27 19.64C40.58 18 41.38 13.85 41.84 11.58C42.89 6.4 41.32 6.96 41.32 6.96C37.92 7.89 33.26 11.03 31.09 12.57C29.27 11.76 27.31 11.11 25.22 10.67C23.13 10.23 21.09 10.06 19.1 10.07C17.74 7.79 14.72 3.02 11.98 0.789999C11.98 0.789999 10.77 -0.360003 9.65001 4.81C9.16001 7.09 8.21001 11.23 7.84001 12.85C7.68001 12.94 7.50002 13.02 7.35002 13.11C3.90002 15.19 1.46002 18.22 0.690016 21.92C-1.12998 30.59 6.90003 39.62 18.64 42.09C30.37 44.55 41.36 39.52 43.18 30.84C43.99 26.97 42.84 23.03 40.28 19.64H40.27Z" fill="#6149D4"/>
</svg>
