<svg width="42" height="41" viewBox="0 0 42 41" fill="none" xmlns="http://www.w3.org/2000/svg">
<path d="M11.69 31.78C11.69 27.08 15.72 23.28 20.69 23.28C25.66 23.28 29.69 27.09 29.69 31.78C29.69 36.47 25.66 40.28 20.69 40.28C15.72 40.28 11.69 36.47 11.69 31.78Z" fill="#E5E5E5"/>
<path d="M5.78001 14.41C10.25 12.96 15.11 15.61 16.65 20.34C18.19 25.07 15.81 30.07 11.34 31.53C6.87001 32.98 2.01001 30.33 0.470015 25.6C-1.06999 20.87 1.31001 15.87 5.78001 14.41Z" fill="#E5E5E5"/>
<path d="M20.47 3.42C23.23 7.22 22.21 12.67 18.19 15.59C14.17 18.51 8.66998 17.8 5.90998 14C3.14998 10.2 4.16998 4.75 8.18998 1.83C12.21 -1.09 17.71 -0.380002 20.47 3.42Z" fill="#E5E5E5"/>
<path d="M35.47 13.99C32.71 17.79 27.21 18.5 23.19 15.58C19.17 12.66 18.15 7.21 20.91 3.41C23.67 -0.390004 29.17 -1.1 33.19 1.82C37.21 4.74 38.23 10.19 35.47 13.99Z" fill="#E5E5E5"/>
<path d="M30.04 31.53C25.57 30.08 23.2 25.07 24.73 20.34C26.27 15.61 31.13 12.96 35.6 14.41C40.07 15.86 42.44 20.87 40.91 25.6C39.37 30.33 34.51 32.98 30.04 31.53Z" fill="#E5E5E5"/>
<path d="M20.51 27.07C25.105 27.07 28.83 23.5509 28.83 19.21C28.83 14.869 25.105 11.35 20.51 11.35C15.915 11.35 12.19 14.869 12.19 19.21C12.19 23.5509 15.915 27.07 20.51 27.07Z" fill="white"/>
</svg>
