<svg width="42" height="41" viewBox="0 0 42 41" fill="none" xmlns="http://www.w3.org/2000/svg">
<path d="M11.85 31.94C11.85 27.24 15.88 23.44 20.85 23.44C25.82 23.44 29.85 27.25 29.85 31.94C29.85 36.63 25.82 40.44 20.85 40.44C15.88 40.44 11.85 36.63 11.85 31.94Z" fill="#ED7F74"/>
<path d="M5.94 14.57C10.41 13.12 15.27 15.77 16.81 20.5C18.35 25.23 15.97 30.23 11.5 31.69C7.03 33.14 2.17 30.49 0.630003 25.76C-0.909997 21.03 1.47 16.03 5.94 14.57Z" fill="#ED7F74"/>
<path d="M20.63 3.58C23.39 7.38 22.37 12.83 18.35 15.75C14.33 18.67 8.83 17.96 6.07 14.16C3.31 10.36 4.33 4.91 8.35 1.99C12.37 -0.929999 17.87 -0.219999 20.63 3.58Z" fill="#ED7F74"/>
<path d="M35.63 14.15C32.87 17.95 27.37 18.66 23.35 15.74C19.33 12.82 18.31 7.37 21.07 3.57C23.83 -0.230001 29.33 -0.940001 33.35 1.98C37.37 4.9 38.39 10.35 35.63 14.15Z" fill="#ED7F74"/>
<path d="M30.2 31.69C25.73 30.24 23.36 25.23 24.89 20.5C26.43 15.77 31.29 13.12 35.76 14.57C40.23 16.02 42.6 21.03 41.07 25.76C39.53 30.49 34.67 33.14 30.2 31.69Z" fill="#ED7F74"/>
<path d="M20.67 27.23C25.265 27.23 28.99 23.711 28.99 19.37C28.99 15.029 25.265 11.51 20.67 11.51C16.075 11.51 12.35 15.029 12.35 19.37C12.35 23.711 16.075 27.23 20.67 27.23Z" fill="white"/>
</svg>
