<svg width="37" height="40" viewBox="0 0 37 40" fill="none" xmlns="http://www.w3.org/2000/svg">
<path d="M36.84 21.2C35.83 18.11 33.74 16.88 32.06 16.39C31.5 11.49 30.79 8.61 30.19 7.23C30.19 7.21 30.17 7.2 30.17 7.19C28.38 2.99 24.04 0.0299988 18.97 0.0299988C13.9 0.0299988 9.55001 3 7.77001 7.2C7.73001 7.23 7.69 7.27 7.67 7.33C7.08 8.7 6.38001 11.55 5.82001 16.36C4.12001 16.82 1.94 18.04 0.899998 21.21C0.699998 21.81 1.16 22.45 1.79 22.4C2.21 22.37 2.76 22.21 3.43 21.8C3.96 21.47 4.64 21.41 5.34 21.48C5.26 22.52 5.19001 23.61 5.13001 24.77C4.71001 32.62 3.37 35.24 2.79 36.02C2.71 36.1 2.63001 36.19 2.57001 36.27L2.54 36.32C2.36 36.59 2.25 36.87 2.25 37.18C2.25 38.49 4.15001 39.55 6.49001 39.55C8.48001 39.55 10.15 38.78 10.6 37.74C11.05 38.78 12.72 39.55 14.71 39.55C16.93 39.55 18.74 38.6 18.93 37.38C19.19 38.55 20.97 39.45 23.13 39.45C25.12 39.45 26.79 38.68 27.24 37.64C27.69 38.68 29.36 39.45 31.35 39.45C33.69 39.45 35.59 38.39 35.59 37.08C35.59 36.78 35.49 36.49 35.3 36.22L35.27 36.17C35.21 36.08 35.13 36 35.05 35.92C34.47 35.14 33.13 32.52 32.71 24.67C32.65 23.54 32.58 22.47 32.51 21.46C33.16 21.41 33.79 21.49 34.29 21.79C34.96 22.2 35.51 22.36 35.93 22.39C36.56 22.44 37.02 21.8 36.82 21.2H36.84Z" fill="#40EBC5"/>
</svg>
