<svg width="37" height="41" viewBox="0 0 37 41" fill="none" xmlns="http://www.w3.org/2000/svg">
<path d="M36.68 22.04C35.67 18.95 33.58 17.72 31.9 17.23C31.34 12.33 30.63 9.45 30.03 8.07C30.03 8.05 30.01 8.03999 30.01 8.02999C28.22 3.83 23.88 0.869995 18.81 0.869995C13.74 0.869995 9.39002 3.84 7.61002 8.04C7.57002 8.07 7.53001 8.11 7.51001 8.17C6.92001 9.54 6.22002 12.39 5.66002 17.2C3.96002 17.66 1.78001 18.88 0.740009 22.05C0.540009 22.65 1.00001 23.29 1.63001 23.24C2.05001 23.21 2.60001 23.05 3.27001 22.64C3.80001 22.31 4.48001 22.25 5.18001 22.32C5.10001 23.36 5.03002 24.45 4.97002 25.61C4.55002 33.46 3.21001 36.08 2.63001 36.86C2.55001 36.94 2.47002 37.03 2.41002 37.11L2.38001 37.16C2.20001 37.43 2.09002 37.71 2.09002 38.02C2.09002 39.33 3.99002 40.39 6.33002 40.39C8.32002 40.39 9.99002 39.62 10.44 38.58C10.89 39.62 12.56 40.39 14.55 40.39C16.77 40.39 18.58 39.44 18.77 38.22C19.03 39.39 20.81 40.29 22.97 40.29C24.96 40.29 26.63 39.52 27.08 38.48C27.53 39.52 29.2 40.29 31.19 40.29C33.53 40.29 35.43 39.23 35.43 37.92C35.43 37.62 35.33 37.33 35.14 37.06L35.11 37.01C35.05 36.92 34.97 36.84 34.89 36.76C34.31 35.98 32.97 33.36 32.55 25.51C32.49 24.38 32.42 23.31 32.35 22.3C33 22.25 33.63 22.33 34.13 22.63C34.8 23.04 35.35 23.2 35.77 23.23C36.4 23.28 36.86 22.64 36.66 22.04H36.68Z" fill="#E5E5E5"/>
</svg>
