<svg width="36" height="48" viewBox="0 0 36 48" fill="none" xmlns="http://www.w3.org/2000/svg">
<path d="M11.16 0.889996C10.63 0.699996 10.04 1.03 9.92001 1.58C9.92001 1.58 2.63999 35.05 0.239987 46.22C0.0599871 47.07 1.07 47.65 1.72 47.07L35.4 16.5C35.83 16.11 35.81 15.42 35.35 15.06C32.3 12.67 21.75 4.75 11.16 0.889996Z" fill="#47D079"/>
<path d="M9.13 5.23C9.13 5.23 15.28 17.68 27.23 23.91L21.61 29.01C21.61 29.01 8.63999 20.06 7.04999 14.81L9.13 5.23Z" fill="#9CFABE"/>
<path d="M5.29999 22.86C5.29999 22.86 8.43001 29.86 15.76 34.32L11.18 38.48C11.18 38.48 5.52001 34.28 3.60001 30.7L5.29999 22.85V22.86Z" fill="#9CFABE"/>
</svg>
