<svg width="36" height="48" viewBox="0 0 36 48" fill="none" xmlns="http://www.w3.org/2000/svg">
<path d="M11 0.729992C10.47 0.539992 9.88001 0.869995 9.76001 1.41999C9.76001 1.41999 2.47998 34.89 0.0799835 46.06C-0.100017 46.91 0.909994 47.49 1.55999 46.91L35.24 16.34C35.67 15.95 35.65 15.26 35.19 14.9C32.14 12.51 21.59 4.58999 11 0.729992Z" fill="#E5E5E5"/>
<path d="M8.97003 5.06999C8.97003 5.06999 15.12 17.52 27.07 23.75L21.45 28.85C21.45 28.85 8.48001 19.9 6.89001 14.65L8.97003 5.06999Z" fill="#FAFAFA"/>
<path d="M5.13998 22.7C5.13998 22.7 8.27001 29.7 15.6 34.16L11.02 38.32C11.02 38.32 5.36 34.12 3.44 30.54L5.13998 22.69V22.7Z" fill="#FAFAFA"/>
</svg>
