<svg width="43" height="45" viewBox="0 0 43 45" fill="none" xmlns="http://www.w3.org/2000/svg">
<path d="M24.51 1.36C27.01 6.16 28.74 14.35 28.74 14.35C28.74 14.35 36.59 15.22 41.43 17.96C42.46 18.54 42.68 19.65 41.89 20.58C37.69 25.48 31.31 28.93 31.31 28.93C31.31 28.93 32.61 35.61 31.8 42.68C31.66 43.91 30.57 44.58 29.55 43.98C23.47 40.39 18.78 36.15 18.78 36.15C18.78 36.15 13.33 39.35 6.38999 41.03C5.23999 41.31 4.29999 40.42 4.53999 39.21C5.98999 31.81 8.46999 26.02 8.46999 26.02C8.46999 26.02 2.74999 20.14 0.319992 15.29C-0.220008 14.2 0.259994 13.08 1.41999 12.87C7.12999 11.87 14.61 12.55 14.61 12.55C14.61 12.55 18.04 5.36 21.96 1.03C22.78 0.13 23.93 0.269999 24.49 1.35L24.51 1.36Z" fill="#E5E5E5"/>
</svg>
