<svg width="43" height="45" viewBox="0 0 43 45" fill="none" xmlns="http://www.w3.org/2000/svg">
<path d="M24.67 1.52C27.17 6.32 28.9 14.51 28.9 14.51C28.9 14.51 36.75 15.38 41.59 18.12C42.62 18.7 42.84 19.81 42.05 20.74C37.85 25.64 31.47 29.09 31.47 29.09C31.47 29.09 32.77 35.77 31.96 42.84C31.82 44.07 30.73 44.74 29.71 44.14C23.63 40.55 18.94 36.31 18.94 36.31C18.94 36.31 13.49 39.51 6.55 41.19C5.4 41.47 4.46 40.58 4.7 39.37C6.15 31.97 8.63 26.18 8.63 26.18C8.63 26.18 2.91 20.3 0.479996 15.45C-0.0600044 14.36 0.419998 13.24 1.58 13.03C7.29 12.03 14.77 12.71 14.77 12.71C14.77 12.71 18.2 5.52 22.12 1.19C22.94 0.290003 24.09 0.430003 24.65 1.51L24.67 1.52Z" fill="#FFDE60"/>
</svg>
